<?xml version="1.0" encoding="UTF-8"?>
<svg id="Layer_2" data-name="Layer 2" xmlns="http://www.w3.org/2000/svg" viewBox="0 0 470.41 189.35">
  <defs>
    <style>
      .cls-1 {
        fill: none;
        stroke: #c49a47;
        stroke-width: 1.6px;
      }

      .cls-2 {
        fill: #fff;
      }

      .cls-3 {
        fill: #FAFAF0;
      }

      .cls-4 {
        fill: #c49a47;
      }
    </style>
  </defs>
  <g id="Layer_1-2" data-name="Layer 1">
    <g>
      <path class="cls-3" d="M46.65,136.95c-9.1,0-17.18-1.82-24.23-5.48-7.05-3.65-12.55-9.05-16.5-16.2-3.95-7.15-5.93-15.93-5.93-26.33,0-6.2.8-12.4,2.4-18.6s3.77-12.15,6.53-17.85c2.75-5.7,5.82-10.95,9.23-15.75-1.5-6-2.25-12.5-2.25-19.5,0-5.3.6-10.35,1.8-15.15.4-1.4,1.1-2.1,2.1-2.1.8,0,1.15.5,1.05,1.5-.3,2-.55,4.13-.75,6.38s-.3,4.92-.3,8.03c0,5.8.55,11.3,1.65,16.5,1-1.3,2-2.5,3-3.6,4.1-4.5,8.95-8.73,14.55-12.68s11.83-7.13,18.68-9.53,14.13-3.6,21.83-3.6c7.2,0,13.8,1.32,19.8,3.98s10.83,6.45,14.48,11.4,5.48,10.92,5.48,17.93c0,4.4-1.17,8.9-3.53,13.5s-5.7,8.83-10.05,12.68-9.6,6.98-15.75,9.38-13.02,3.6-20.63,3.6c-10,0-19.15-2.2-27.45-6.6s-14.75-11.1-19.35-20.1c-4,7.1-6.95,14.3-8.85,21.6s-2.85,14.25-2.85,20.85c0,9.6,1.6,17.4,4.8,23.4s7.62,10.43,13.28,13.28c5.65,2.85,12.13,4.28,19.43,4.28,13,0,24.42-3.27,34.28-9.83s17.97-16.68,24.38-30.38c1.2,0,1.8.45,1.8,1.35-6.2,14.8-14.67,25.78-25.43,32.93-10.75,7.15-22.97,10.73-36.68,10.73ZM28.95,38.7c-1.3,1.8-2.55,3.65-3.75,5.55,3.5,8.2,8.85,14.8,16.05,19.8s16.25,7.5,27.15,7.5c6.9,0,13.08-1.05,18.53-3.15s10.05-4.9,13.8-8.4,6.63-7.37,8.63-11.63,3-8.52,3-12.83c0-5.3-1.43-9.95-4.28-13.95s-6.72-7.13-11.63-9.38-10.45-3.38-16.65-3.38-12.43,1.3-18.68,3.9-12.15,6.15-17.7,10.65-10.37,9.6-14.48,15.3Z"/>
      <path class="cls-3" d="M92.4,122.1c4.2-8.6,8.58-17.63,13.13-27.08,4.55-9.45,9.23-18.98,14.03-28.58s9.55-18.75,14.25-27.45c1.7-3,3.28-5.35,4.73-7.05s3.38-2.55,5.78-2.55c.9,0,1.95.15,3.15.45s2.35.35,3.45.15c-1.3,1.4-3.08,3.85-5.33,7.35s-4.75,7.7-7.5,12.6c-2.75,4.9-5.65,10.18-8.7,15.83s-6.05,11.35-9,17.1c-2.95,5.75-5.68,11.13-8.18,16.13,2-2.6,4.05-5.05,6.15-7.35s4.15-4.3,6.15-6c2.2-2,4.98-4.1,8.33-6.3s6.7-4.1,10.05-5.7,6.02-2.4,8.03-2.4c.7,0,1.2.05,1.5.15,0,0-.55,1-1.65,3s-2.48,4.55-4.13,7.65c-1.65,3.1-3.35,6.45-5.1,10.05s-3.28,7.02-4.58,10.28c-1.3,3.25-2.15,5.93-2.55,8.03-.3,1.6-.45,2.95-.45,4.05,0,1.6.3,2.68.9,3.23s1.25.83,1.95.83c1.7,0,3.53-.88,5.48-2.63,1.95-1.75,3.88-3.98,5.78-6.68s3.68-5.57,5.33-8.63c1.65-3.05,2.98-5.93,3.98-8.63,1.2,0,1.8.45,1.8,1.35-1.1,2.7-2.48,5.67-4.13,8.93-1.65,3.25-3.53,6.32-5.63,9.23-2.1,2.9-4.4,5.3-6.9,7.2-2.5,1.9-5.15,2.85-7.95,2.85-2,0-4.05-.7-6.15-2.1-2.1-1.4-3.15-3.95-3.15-7.65,0-1.1.1-2.27.3-3.53s.55-2.68,1.05-4.28c.6-2,1.6-4.23,3-6.68s3.2-5.52,5.4-9.23c1-1.7,1.5-3.05,1.5-4.05,0-1.2-.6-1.8-1.8-1.8-1,0-2.35.5-4.05,1.5s-3.85,2.75-6.45,5.25c-2.5,2.4-5.6,5.9-9.3,10.5-3.7,4.6-7.65,11.05-11.85,19.35-.7,1.3-1.48,1.98-2.33,2.03-.85.05-1.98.13-3.38.23-.9.1-1.8.18-2.7.23s-1.65.32-2.25.83Z"/>
      <path class="cls-3" d="M157.5,91.5c.8-1.7,1.85-4.43,3.15-8.18s2.65-7.93,4.05-12.53,2.45-8.95,3.15-13.05c.3-1.6.85-2.78,1.65-3.53s1.65-1.13,2.55-1.13c1.3,0,2.5.62,3.6,1.88s1.65,3.02,1.65,5.33c0,2.8-.83,5.2-2.48,7.2s-3.68,3.9-6.08,5.7c1,.1,2.05.17,3.15.23s2.3.08,3.6.08c4.7,0,9.35-.3,13.95-.9.2.6.3,1.05.3,1.35,0,1.3-.38,2.95-1.13,4.95s-1.52,3.8-2.33,5.4c-.4.9-1.2,2.52-2.4,4.88s-2.5,5-3.9,7.95-2.58,5.85-3.53,8.7-1.43,5.27-1.43,7.28c0,2.6,1,3.9,3,3.9s4.55-2.22,7.95-6.68c3.4-4.45,6.8-10.58,10.2-18.38,1.2,0,1.8.45,1.8,1.35-1.1,2.7-2.48,5.65-4.13,8.85-1.65,3.2-3.47,6.23-5.48,9.08-2,2.85-4.15,5.2-6.45,7.05-2.3,1.85-4.7,2.78-7.2,2.78-1.9,0-3.8-.78-5.7-2.33-1.9-1.55-2.85-4.08-2.85-7.58,0-3.1.6-6.13,1.8-9.08,1.2-2.95,2.55-5.73,4.05-8.33s2.85-4.9,4.05-6.9,1.8-3.6,1.8-4.8c0-1.8-1.13-3.1-3.38-3.9s-5.18-1.25-8.78-1.35c-1.8,4.6-3.15,8-4.05,10.2s-1.75,4.3-2.55,6.3c-1.6,0-2.15-.6-1.65-1.8Z"/>
      <path class="cls-3" d="M200.4,120.9c-3.7,0-6.3-1.08-7.8-3.23-1.5-2.15-2.25-4.62-2.25-7.43,0-1.5.17-3.02.53-4.58s.77-2.98,1.28-4.28l10.05-25.65c.3-.8.45-1.5.45-2.1,0-1-.25-1.88-.75-2.63s-.85-1.28-1.05-1.58l8.25-.3c1.5-.1,2.58.08,3.23.53s.98.98.98,1.58-.35,1.7-1.05,3.3c-1,2.4-2.35,5.4-4.05,9-1.7,3.6-3.38,7.3-5.03,11.1s-3.05,7.35-4.2,10.65-1.73,5.85-1.73,7.65c0,1.3.32,2.4.98,3.3s1.78,1.35,3.38,1.35c2.1,0,4.18-.83,6.23-2.48,2.05-1.65,3.98-3.78,5.78-6.38,1.8-2.6,3.48-5.4,5.03-8.4s2.88-5.8,3.98-8.4c1.2,0,1.8.45,1.8,1.35-1,2.5-2.3,5.35-3.9,8.55-1.6,3.2-3.42,6.23-5.48,9.08s-4.3,5.23-6.75,7.13c-2.45,1.9-5.08,2.85-7.88,2.85ZM213.75,59.85c-1.3,0-2.43-.5-3.38-1.5s-1.43-2.2-1.43-3.6c0-1.7.7-3.23,2.1-4.58s2.95-2.03,4.65-2.03c1.4,0,2.6.45,3.6,1.35s1.5,2.05,1.5,3.45c0,1.8-.7,3.4-2.1,4.8s-3.05,2.1-4.95,2.1Z"/>
      <path class="cls-3" d="M225.75,121.5c-4.1,0-7.43-1.28-9.98-3.83s-3.83-5.23-3.83-8.03c0-2.3.57-4.43,1.73-6.38,1.15-1.95,2.68-2.93,4.58-2.93l.15-.3c2.2-4,4.32-8.07,6.38-12.23,2.05-4.15,4.33-8.57,6.83-13.28,2.1-3.9,4.38-7.1,6.83-9.6s5.33-3.75,8.63-3.75c.8,0,1.9.17,3.3.53s2.1,1.07,2.1,2.18c0,.8-.45,1.2-1.35,1.2-.7,0-1.47-.2-2.33-.6s-1.53-.6-2.03-.6c-1.9,0-3.5,1.1-4.8,3.3s-1.95,4.55-1.95,7.05c0,2.7.45,5.12,1.35,7.28.9,2.15,1.95,4.23,3.15,6.23s2.25,4.02,3.15,6.08,1.35,4.28,1.35,6.68c0,4.8-.93,8.68-2.78,11.63-1.85,2.95-4.28,5.18-7.28,6.68h.15c5.3,0,9.68-2.48,13.13-7.43s6.88-11.43,10.28-19.43c1.2,0,1.8.45,1.8,1.35-1.9,4.5-4,8.9-6.3,13.2s-5,7.85-8.1,10.65c-3.1,2.8-6.9,4.2-11.4,4.2-1.9,0-3.65-.2-5.25-.6-2.3.5-4.8.75-7.5.75ZM223.5,105.6c0,2.4.55,4.7,1.65,6.9,1.1,2.2,3.1,3.85,6,4.95,2.6-1.5,4.62-3.83,6.08-6.98s2.18-6.43,2.18-9.83c0-2.8-.3-5.65-.9-8.55s-1.23-5.75-1.88-8.55c-.65-2.8-.98-5.3-.98-7.5,0-.7.03-1.33.08-1.88s.12-1.07.23-1.58c-1.8,2.7-3.62,5.85-5.48,9.45s-3.62,7.05-5.33,10.35-3.25,6-4.65,8.1c2,.3,3,2,3,5.1ZM218.55,113.1c0,1.6.55,3,1.65,4.2s2.75,1.8,4.95,1.8c1,0,1.95-.1,2.85-.3-2.1-1.3-3.77-2.95-5.03-4.95-1.25-2-1.88-4.3-1.88-6.9-.9,1-1.55,2.03-1.95,3.08s-.6,2.07-.6,3.08Z"/>
      <path class="cls-3" d="M293.7,41.7c-1.3,1.9-2.75,4.3-4.35,7.2s-3.08,5.7-4.43,8.4l-3.08,6.15h13.8c0,.4-.17,1.05-.53,1.95s-1.03,1.55-2.03,1.95h-13.05c-1.2,2.7-2.58,5.95-4.13,9.75s-3.05,7.75-4.5,11.85-2.65,7.92-3.6,11.48c-.95,3.55-1.43,6.43-1.43,8.63,0,3,.4,5.23,1.2,6.68.8,1.45,2.25,2.18,4.35,2.18,2.7,0,5.3-1.33,7.8-3.98,2.5-2.65,4.88-5.98,7.13-9.98,2.25-4,4.23-8,5.93-12,1.2,0,1.8.45,1.8,1.35-1.1,2.7-2.45,5.65-4.05,8.85-1.6,3.2-3.42,6.28-5.48,9.23-2.05,2.95-4.35,5.35-6.9,7.2-2.55,1.85-5.38,2.78-8.48,2.78-4.2,0-7.05-1.18-8.55-3.53-1.5-2.35-2.25-5.38-2.25-9.08,0-2.7.5-5.98,1.5-9.83,1-3.85,2.22-7.83,3.68-11.93,1.45-4.1,2.87-7.93,4.28-11.48s2.5-6.28,3.3-8.18h-9.6c0-.8.35-1.65,1.05-2.55.7-.9,1.45-1.35,2.25-1.35h7.95c.8-1.6,1.73-3.6,2.78-6s2.48-5.05,4.28-7.95c1.5-2.4,3.42-4.3,5.78-5.7,2.35-1.4,4.88-2.1,7.58-2.1Z"/>
      <path class="cls-3" d="M278.25,121.65c3.7-7.1,7.2-14.23,10.5-21.38,3.3-7.15,6.65-13.92,10.05-20.33,2-3.6,3.68-6.13,5.03-7.58s3.18-2.18,5.48-2.18c.8,0,1.65.13,2.55.38s1.8.38,2.7.38c.6,0,1.05-.05,1.35-.15-1.4.8-3.2,2.78-5.4,5.93s-4.45,6.78-6.75,10.88c-2.3,4.1-4.35,7.95-6.15,11.55,1.9-2.3,3.88-4.6,5.93-6.9,2.05-2.3,4.32-4.5,6.83-6.6,2.2-1.9,4.53-3.98,6.98-6.23s4.88-4.18,7.28-5.78,4.5-2.4,6.3-2.4c.7,0,1.15.05,1.35.15,1.9.8,2.85,2.1,2.85,3.9,0,.6-.25,1.5-.75,2.7-1.3,3.4-2.98,6.87-5.03,10.43s-3.98,7.13-5.78,10.73c1.5-1.8,3.38-4,5.63-6.6s4.52-4.9,6.83-6.9c2.2-2,5-4.1,8.4-6.3s6.75-4.1,10.05-5.7,5.95-2.4,7.95-2.4c.7,0,1.2.05,1.5.15,0,0-.55.98-1.65,2.93s-2.48,4.5-4.13,7.65-3.32,6.5-5.03,10.05-3.23,6.95-4.58,10.2c-1.35,3.25-2.23,5.98-2.63,8.18-.3,1.3-.45,2.5-.45,3.6,0,1.6.3,2.65.9,3.15s1.25.75,1.95.75c2,0,3.98-.85,5.93-2.55,1.95-1.7,3.88-3.87,5.78-6.53,1.9-2.65,3.63-5.48,5.18-8.48s2.88-5.8,3.98-8.4c1.2,0,1.8.45,1.8,1.35-1.1,2.7-2.48,5.67-4.13,8.93-1.65,3.25-3.53,6.32-5.63,9.23-2.1,2.9-4.4,5.3-6.9,7.2-2.5,1.9-5.2,2.85-8.1,2.85-2.1,0-4.07-.7-5.93-2.1-1.85-1.4-2.78-4-2.78-7.8,0-4.1.98-8.2,2.93-12.3,1.95-4.1,3.98-7.85,6.08-11.25,1-1.7,1.5-3.05,1.5-4.05,0-1.2-.6-1.8-1.8-1.8-1,0-2.38.5-4.13,1.5s-3.92,2.75-6.53,5.25c-1.6,1.5-3.47,3.57-5.63,6.23s-4.33,5.52-6.53,8.63c-2.2,3.1-4.1,6.15-5.7,9.15s-2.65,5.65-3.15,7.95c-1.5,0-2.7-.63-3.6-1.88-.9-1.25-1.35-2.73-1.35-4.43v-.9c0-.3.05-.65.15-1.05.5-3.1,1.3-5.72,2.4-7.88s2.35-4.68,3.75-7.58c.7-1.3,1.5-2.82,2.4-4.58s1.7-3.45,2.4-5.1,1.05-3.03,1.05-4.13c0-1-.4-1.5-1.2-1.5-.9,0-2.07.45-3.53,1.35s-2.82,1.92-4.13,3.08-2.3,2.03-3,2.63c-2.5,2.4-5.52,5.85-9.08,10.35-3.55,4.5-7.43,10.9-11.63,19.2-.6,1.1-1.3,1.78-2.1,2.03-.8.25-2.05.38-3.75.38-1.1,0-2.03.03-2.78.08-.75.05-1.53.27-2.33.68Z"/>
      <path class="cls-3" d="M401.69,121.35c-2.3,0-4.32-.65-6.08-1.95-1.75-1.3-2.63-3.95-2.63-7.95,0-1.7.12-3.3.38-4.8s.57-3.1.98-4.8c-.9,1.5-2.15,3.35-3.75,5.55s-3.38,4.35-5.33,6.45-3.95,3.85-6,5.25c-2.05,1.4-3.98,2.1-5.78,2.1-2.6,0-4.7-1.18-6.3-3.53-1.6-2.35-2.4-5.43-2.4-9.23,0-4.1.95-8.5,2.85-13.2s4.5-9.2,7.8-13.5c3.3-4.3,7.1-7.8,11.4-10.5s8.8-4.05,13.5-4.05c2.3,0,4.5.38,6.6,1.13s3.95,1.97,5.55,3.68c.7.7,1.05,1.5,1.05,2.4,0,.6-.25,1.1-.75,1.5s-1.15.5-1.95.3c-1.1-3.5-3.45-5.25-7.05-5.25-1.7,0-3.65.55-5.85,1.65-2.7,1.4-5.58,3.62-8.63,6.68s-5.9,6.5-8.55,10.35c-2.65,3.85-4.82,7.73-6.53,11.63s-2.55,7.45-2.55,10.65,1.25,4.95,3.75,4.95c2.2,0,4.47-1.05,6.83-3.15s4.6-4.73,6.75-7.88,4.13-6.27,5.93-9.38,3.2-5.6,4.2-7.5c1.5-2.7,2.9-4.95,4.2-6.75s3.15-2.7,5.55-2.7c1.1,0,2.2.15,3.3.45s2.25.35,3.45.15c-3,3-5.63,6.55-7.88,10.65s-3.98,8.13-5.18,12.08c-1.2,3.95-1.8,7.28-1.8,9.98,0,3,1,4.5,3,4.5,1.6,0,3.32-.9,5.18-2.7s3.65-4.07,5.4-6.83,3.38-5.55,4.88-8.4,2.7-5.33,3.6-7.43c.5,0,.92.05,1.28.15s.53.5.53,1.2c-.1.4-.28.83-.53,1.28s-.62,1.23-1.13,2.33c-.8,1.6-1.9,3.75-3.3,6.45s-3.05,5.42-4.95,8.18c-1.9,2.75-3.95,5.08-6.15,6.98-2.2,1.9-4.5,2.85-6.9,2.85Z"/>
      <path class="cls-3" d="M425.99,121.5c-4.1,0-7.43-1.28-9.98-3.83s-3.83-5.23-3.83-8.03c0-2.3.57-4.43,1.73-6.38,1.15-1.95,2.68-2.93,4.58-2.93l.15-.3c2.2-4,4.32-8.07,6.38-12.23,2.05-4.15,4.33-8.57,6.83-13.28,2.1-3.9,4.38-7.1,6.83-9.6s5.33-3.75,8.63-3.75c.8,0,1.9.17,3.3.53s2.1,1.07,2.1,2.18c0,.8-.45,1.2-1.35,1.2-.7,0-1.47-.2-2.33-.6s-1.53-.6-2.03-.6c-1.9,0-3.5,1.1-4.8,3.3s-1.95,4.55-1.95,7.05c0,2.7.45,5.12,1.35,7.28.9,2.15,1.95,4.23,3.15,6.23s2.25,4.02,3.15,6.08,1.35,4.28,1.35,6.68c0,4.8-.93,8.68-2.78,11.63-1.85,2.95-4.28,5.18-7.28,6.68h.15c5.3,0,9.68-2.48,13.13-7.43s6.88-11.43,10.28-19.43c1.2,0,1.8.45,1.8,1.35-1.9,4.5-4,8.9-6.3,13.2s-5,7.85-8.1,10.65c-3.1,2.8-6.9,4.2-11.4,4.2-1.9,0-3.65-.2-5.25-.6-2.3.5-4.8.75-7.5.75ZM423.74,105.6c0,2.4.55,4.7,1.65,6.9,1.1,2.2,3.1,3.85,6,4.95,2.6-1.5,4.62-3.83,6.08-6.98s2.18-6.43,2.18-9.83c0-2.8-.3-5.65-.9-8.55s-1.23-5.75-1.88-8.55c-.65-2.8-.98-5.3-.98-7.5,0-.7.03-1.33.08-1.88s.12-1.07.23-1.58c-1.8,2.7-3.62,5.85-5.48,9.45s-3.62,7.05-5.33,10.35-3.25,6-4.65,8.1c2,.3,3,2,3,5.1ZM418.79,113.1c0,1.6.55,3,1.65,4.2s2.75,1.8,4.95,1.8c1,0,1.95-.1,2.85-.3-2.1-1.3-3.77-2.95-5.03-4.95-1.25-2-1.88-4.3-1.88-6.9-.9,1-1.55,2.03-1.95,3.08s-.6,2.07-.6,3.08Z"/>
    </g>
    <polygon class="cls-4" points="458.04 11.9 461.25 20.48 470.41 20.88 463.24 26.59 465.69 35.42 458.04 30.36 450.4 35.42 452.85 26.59 445.68 20.88 454.84 20.48 458.04 11.9"/>
    <line class="cls-1" x1="133.42" y1="150.9" x2="311.62" y2="150.9"/>
    <g>
      <path class="cls-2" d="M150.29,171.23h-.32c-.08-.22-.2-.48-.37-.76s-.4-.55-.67-.8-.62-.46-1.01-.62-.86-.25-1.4-.25c-.48,0-.9.07-1.27.22s-.68.35-.93.62-.44.58-.56.94-.19.76-.19,1.2c0,.7.2,1.37.59,2.01.4.64.89,1.27,1.49,1.9s1.24,1.25,1.93,1.88c.69.63,1.34,1.27,1.93,1.95s1.09,1.38,1.49,2.12c.4.74.59,1.53.59,2.38,0,.63-.11,1.27-.33,1.91s-.56,1.21-1.02,1.72c-.46.51-1.05.92-1.77,1.24s-1.58.48-2.58.48c-.56,0-1.09-.05-1.59-.15s-.97-.23-1.39-.38c-.42-.15-.81-.31-1.14-.49s-.61-.34-.83-.48l.34-3.24h.37c.11.46.28.9.53,1.31s.54.78.9,1.1c.36.32.76.57,1.22.76s.96.29,1.51.29c.5,0,.94-.08,1.34-.23.4-.15.73-.36,1.02-.63.28-.27.5-.59.65-.96s.23-.78.23-1.22c0-.62-.11-1.18-.34-1.71s-.52-1.02-.89-1.49-.78-.92-1.25-1.36c-.46-.44-.94-.88-1.43-1.33s-.96-.9-1.43-1.37-.88-.97-1.25-1.5-.66-1.1-.89-1.71-.34-1.28-.34-2.01c0-.77.15-1.47.45-2.09s.69-1.15,1.19-1.59c.49-.44,1.05-.78,1.68-1.01s1.27-.35,1.93-.35c.49,0,.94.04,1.35.12s.78.17,1.11.28.61.21.86.32.44.2.6.26l-.1,2.74Z"/>
      <path class="cls-2" d="M178.71,178.85c-.39,0-.88-.02-1.47-.02s-1.22-.01-1.91-.02-1.41-.02-2.15-.02-1.48,0-2.19-.01-1.39,0-2.04,0-1.21.02-1.68.04v4.35c0,.83.01,1.56.04,2.18.02.62.05,1.15.09,1.6.03.45.08.83.13,1.13.05.3.11.56.17.76v.06h-3.52v-.06c.06-.21.11-.46.17-.76.05-.3.1-.68.14-1.13.04-.45.07-.98.09-1.6.02-.62.03-1.35.03-2.18v-9.54c0-.83,0-1.56-.03-2.18s-.05-1.16-.09-1.61-.09-.83-.14-1.14-.11-.56-.17-.76v-.06h3.52v.06c-.06.21-.11.46-.17.76s-.1.68-.13,1.14-.06.99-.09,1.61-.04,1.35-.04,2.18v3.75c.51.02,1.08.03,1.73.04s1.32,0,2.02,0,1.42-.01,2.15-.02,1.43-.02,2.11-.04,1.31-.03,1.9-.05c.59-.02,1.1-.04,1.53-.06v-3.62c0-.83-.01-1.56-.04-2.18s-.05-1.16-.09-1.61-.08-.83-.13-1.14-.11-.56-.17-.76v-.06h3.52v.06c-.06.21-.11.46-.17.76s-.1.68-.14,1.14-.07.99-.09,1.61-.03,1.35-.03,2.18v9.54c0,.83,0,1.56.03,2.18.02.62.05,1.15.09,1.6.04.45.09.83.14,1.13.05.3.11.56.17.76v.06h-3.52v-.06c.06-.21.11-.46.17-.76.05-.3.1-.68.13-1.13.03-.45.06-.98.09-1.6.02-.62.04-1.35.04-2.18v-4.32Z"/>
      <path class="cls-2" d="M204.57,167.54c1.63,0,3.14.27,4.52.8,1.38.53,2.58,1.28,3.58,2.24s1.79,2.12,2.36,3.46.85,2.84.85,4.47c0,.93-.11,1.84-.32,2.74-.21.9-.53,1.75-.94,2.55s-.93,1.54-1.53,2.22-1.3,1.26-2.07,1.76c-.78.49-1.63.88-2.57,1.16s-1.95.42-3.03.42c-1.63,0-3.14-.26-4.52-.78-1.38-.52-2.58-1.26-3.58-2.22-1.01-.96-1.79-2.11-2.36-3.45-.57-1.34-.85-2.83-.85-4.48,0-.93.11-1.84.32-2.74s.53-1.75.94-2.56c.42-.81.92-1.56,1.52-2.23s1.29-1.27,2.07-1.77,1.64-.89,2.58-1.16,1.96-.42,3.04-.42ZM205.4,188.04c1.08,0,2.08-.2,2.97-.59.9-.39,1.67-.96,2.32-1.7.65-.74,1.15-1.65,1.52-2.72s.54-2.28.54-3.64c0-1.5-.17-2.9-.52-4.18s-.86-2.4-1.55-3.34-1.54-1.68-2.56-2.21c-1.02-.53-2.21-.8-3.57-.8-1.08,0-2.08.19-2.97.58s-1.67.94-2.32,1.68-1.15,1.63-1.52,2.7c-.36,1.06-.54,2.28-.54,3.63,0,1.49.17,2.89.51,4.18.34,1.29.85,2.41,1.54,3.36.68.95,1.54,1.69,2.56,2.23s2.22.81,3.57.81Z"/>
      <path class="cls-2" d="M231.27,179.6c.96.18,1.83.19,2.63.05.8-.14,1.48-.44,2.05-.91s1.02-1.09,1.33-1.88.48-1.76.48-2.9c0-.79-.08-1.51-.25-2.16s-.41-1.2-.74-1.66-.74-.81-1.24-1.05-1.08-.37-1.74-.37c-.42,0-.79.02-1.1.05s-.58.07-.79.11c-.25.05-.46.1-.63.16v10.56ZM228.17,167.89c.2.02.4.04.62.06.19.02.39.03.62.04s.47,0,.71,0c.38,0,.9-.05,1.55-.14s1.48-.14,2.48-.14c.94,0,1.8.14,2.6.41s1.49.67,2.07,1.2,1.04,1.17,1.37,1.93.49,1.62.49,2.59c0,1.3-.26,2.42-.78,3.37s-1.21,1.71-2.08,2.3-1.87.98-3,1.19-2.32.22-3.56.04v2.43c0,.83.01,1.56.04,2.18.02.62.05,1.15.09,1.6.03.45.08.83.13,1.13.05.3.11.56.17.76v.06h-3.52v-.06c.06-.21.11-.46.17-.76.05-.3.1-.68.14-1.13.04-.45.07-.98.09-1.6.02-.62.03-1.35.03-2.18v-9.54c0-.83,0-1.56-.03-2.18s-.05-1.16-.09-1.61-.09-.83-.14-1.14-.11-.56-.17-.76v-.06Z"/>
    </g>
    <g>
      <path class="cls-3" d="M265.74,188.61c.15-.19.38-.44.69-.75.31-.32.67-.69,1.08-1.13.41-.43.85-.92,1.32-1.46.47-.54.94-1.12,1.41-1.74s.92-1.29,1.36-2c.43-.71.82-1.45,1.15-2.22s.6-1.57.8-2.4.3-1.68.3-2.55c0-.93-.11-1.73-.33-2.41s-.52-1.24-.9-1.68-.83-.77-1.34-.99-1.07-.32-1.66-.32c-.74,0-1.41.12-2.01.37s-1.12.54-1.57.87-.81.66-1.08,1-.47.59-.56.76l-.21-.09,1-2.97c.52-.23,1-.44,1.46-.61s.91-.31,1.38-.42.94-.19,1.44-.24,1.04-.08,1.63-.08c.4,0,.83.04,1.27.13s.89.23,1.33.42.86.45,1.25.75.75.68,1.05,1.13.55.96.73,1.55.27,1.26.27,2.01c0,.8-.12,1.6-.37,2.41s-.57,1.6-.97,2.37-.86,1.54-1.38,2.28-1.05,1.45-1.6,2.12-1.09,1.31-1.63,1.9c-.54.59-1.02,1.13-1.45,1.62h5.64c.36,0,.72,0,1.06-.02s.67-.04.96-.07.55-.08.77-.14.39-.13.51-.22h.06v3.12h-12.86v-.29Z"/>
      <path class="cls-3" d="M301.95,167.54v.06c-.05.21-.09.46-.13.76s-.07.68-.1,1.13-.04.98-.06,1.6-.02,1.35-.02,2.18v9.02c.89-.02,1.61-.05,2.18-.09.56-.04,1.01-.1,1.34-.18h.06v2.09h-.06c-.33-.06-.78-.11-1.34-.16-.56-.05-1.29-.08-2.18-.1,0,.71.02,1.34.04,1.88s.05,1,.09,1.4.08.73.13,1.01.1.51.16.7v.06h-3.52v-.06c.06-.19.11-.42.16-.7s.09-.62.12-1.01.06-.86.09-1.4.04-1.16.05-1.88h-10.05v-.66l12.72-15.66h.31ZM298.97,182.29v-9.2l-7.41,9.2h7.41Z"/>
    </g>
  </g>
</svg>