<?xml version="1.0" encoding="UTF-8"?>
<svg id="Layer_2" data-name="Layer 2" xmlns="http://www.w3.org/2000/svg" xmlns:xlink="http://www.w3.org/1999/xlink" viewBox="0 0 1641.8 1641.81">
  <defs>
    <style>
      .cls-1 {
        fill: none;
      }

      .cls-2 {
        fill: #1c5a3c;
      }

      .cls-3 {
        clip-path: url(#clippath-1);
      }

      .cls-4 {
        clip-path: url(#clippath-2);
      }

      .cls-5 {
        fill: #fff;
        stroke: #1c5a3c;
        stroke-miterlimit: 10;
        stroke-width: 3px;
      }

      .cls-6 {
        clip-path: url(#clippath);
      }

      .cls-7 {
        fill: #c49a47;
      }
    </style>
    <clipPath id="clippath">
      <rect class="cls-1" x="491.14" y="339.93" width="660.84" height="962.12"/>
    </clipPath>
    <clipPath id="clippath-1">
      <path class="cls-2" d="M824.93,347.42c6.76,6.57,3.72,17.95,1.05,25.74-3.3,9.66-8.45,19.81-15.16,27.58-7.81,9.03-17.17,16.2-23.31,26.69-6.34,10.84-7.8,22.13-2.2,33.54,1.11,2.26,3.85,3.58,6.27,3.59,27.9.26,55.21-7.59,78.69-22.69-2.93-.38-5.84-.75-8.75-1.14,12.59,12.36.63,31.09-10.97,38.81-14.95,9.95-32.89,15.05-48.69,23.55-16.98,9.14-32.74,20.1-47.33,32.71-12.69,10.96-25.75,23.05-34.4,37.58-7.26,12.18-12.95,28.2-8.23,42.31,5.04,15.04,20.41,22.53,35.56,20.17,18.28-2.84,32.87-15.78,46.91-26.79,17.48-13.71,34.79-27.72,52.5-41.15,13.2-10.02,30.07-21.45,47.49-17.96,17.53,3.49,26.71,18.73,16.24,34.56-9.09,13.77-24.87,23.49-38.85,31.63-14.78,8.62-30.34,15.51-46.37,21.44-31.32,11.61-63.55,20.58-94.58,33.06-16.17,6.5-32.06,13.76-46.97,22.82-13.98,8.5-29.9,18.69-34.93,35.23-4.9,16.12,2.77,32.88,15.19,43.28,13.56,11.37,30.26,14.72,47.46,11.62,19.64-3.54,37.07-14.74,53.77-25.04,17.62-10.89,35.53-21.26,53.56-31.42,18.02-10.16,36.2-20.05,54.69-29.35,17.15-8.63,34.96-18.39,53.59-23.45,11.37-3.1,27.68-5.9,37.39,2.78,14.74,13.16-2.94,34.66-12.54,44.65-53.43,55.67-131.67,72.37-205.23,81.86-21.33,2.75-42.71,5.3-63.98,8.4-18.77,2.74-37.36,6.46-54.71,14.38-30.97,14.14-57.66,48.08-47.26,83.69,9.34,32.05,43.51,50.18,75.13,51.15,40.48,1.25,79.97-18.83,116.66-33.52,36.99-14.82,73.77-30.42,108.95-49.22,17.14-9.15,33.84-19.12,49.9-30.1,15.57-10.64,30.46-24.65,48.31-31.35,17-6.37,33.01-.44,40.71,16.13,7.71,16.56,2.78,35.53-5.58,50.84-15.59,28.49-41.52,50.39-69.75,65.71-60.1,32.63-130.16,38.47-197.02,43.7-38.41,3.01-77.04,6.14-114.77,14.31-36.08,7.8-73.62,20.45-103.49,42.78-27.44,20.49-48.17,56.1-32.05,90.25,15.15,32.09,55.41,35.91,86.58,35.46,132.43-1.94,241.78-89.7,360.83-135.56,29.69-11.42,60.37-20.43,91.92-24.93,15.41-2.19,31.19-3.24,46.76-2.65,16.02.61,33.24,4.35,42.38,18.84,18.9,29.96-3.36,64.75-29.02,81.76-28.21,18.7-61.68,25.33-94.96,27.44-35.45,2.28-70.94-.34-106.4-.51-17.35-.08-34.72.37-51.97,2.26-17.45,1.92-35.77,4.42-52.1,11.16-15.02,6.2-29.29,18.39-27.45,36.2,1.78,17.24,17.79,27.03,33.38,30.35,12.44,2.64,28.28-.54,39.52,6.3,3.67,2.23,5.33,5.43,5.14,8.75,0-.17-.8,2.9-1.18,3.67-1.04,2.12-2.49,3.96-4.02,5.72-13.92,15.99-34.15,27.63-33.84,51.21.09,6.34,9.95,6.35,9.86,0-.13-9.49,10.76-17.34,18.19-22.48,9.28-6.44,19.07-13.02,25.78-22.3,7.42-10.26,8.36-23.74,1.1-34.4-8.98-13.21-25.39-16.46-40.25-18.09-6.55-.71-12.93-.99-19.2-3.31-3.34-1.22-9.19-4.01-9.59-7.04-1.47-10.9,26.36-14.81,32.79-16.22,34.66-7.59,70.59-6.84,105.86-6.24,67.9,1.15,144.89,2.49,196.66-49.31,23.75-23.78,35.54-59.33,19.49-90.74-16.87-32.96-57.11-33.84-89.39-31.74-131.92,8.59-239.41,97.28-360.67,139.69-29.51,10.31-60.16,18.12-91.41,20.51-15.25,1.15-31.03,1.62-46.22-.46-15.02-2.05-32.22-7.45-39.44-22.07-7.02-14.22-2.97-31.45,5.34-44.17,9.98-15.25,26.14-25.5,41.94-33.81,33.57-17.68,70.97-26.61,108.29-32.1,71.39-10.47,144.76-7.92,214.65-27.82,31.13-8.88,61.88-21.94,88.13-41.09,26.7-19.46,51.62-46.32,61.92-78.34,5.28-16.42,5.21-34.19-2.49-49.82-7.35-14.91-21.6-25.68-38.32-27.16-18.22-1.62-35.2,7.9-49.71,17.86-16.58,11.4-32.84,22.98-50.26,33.11-34.46,20.06-70.79,36.59-107.7,51.61-18.49,7.52-37.11,14.71-55.72,21.88-19.09,7.35-38.61,15.11-59.01,17.89-28.42,3.88-69.31-6.69-74.31-40.33-2.45-16.49,7.22-32.13,19.07-42.65,13.83-12.26,32.5-17.66,50.27-21.15,40.71-8.02,82.41-10.43,123.24-18.02,37.78-7.02,75.09-17.52,109.27-35.41,16.06-8.4,31.85-18.45,45.25-30.7,12.59-11.51,25.57-24.69,32.81-40.38,6.72-14.55,7.36-32.4-5.27-44.1-9.69-8.98-23.69-10.44-36.28-8.95-16.79,1.98-31.82,9.03-47,16.05-18.77,8.69-37.25,17.98-55.5,27.74-19.04,10.2-37.83,20.86-56.57,31.6-17.11,9.81-34.75,20.61-53.37,27.33-16.19,5.86-35.32,8.24-48.83-4.62-4.39-4.17-8.24-9.7-8.85-15.89-.81-7.94,4.8-14.09,10.5-18.81,25.59-21.15,59.53-32.9,90.47-43.63,32.13-11.14,64.67-21.8,94.83-37.75,15.06-7.98,29.33-17.41,42.19-28.62,12.07-10.52,24.47-24.74,23.67-41.81-.73-15.32-12.31-26.77-26.15-31.68-15.42-5.45-31.68-1.41-45.65,6.14-17.93,9.7-34.02,23.82-50.32,35.98-15.92,11.86-31.5,25.94-49.17,35.12-7.32,3.81-17.18,7.5-24.95,2.84-5.8-3.49-7.53-9.84-6.88-16.28,1.54-15.11,11.95-27.7,22.12-38.1,26.93-27.57,58.63-46.64,93.19-63.01,14.58-6.91,29.32-16.02,35.83-31.49,5.51-13.1,4.66-28.61-5.87-38.95-2.2-2.18-6.05-2.87-8.75-1.14-21.46,13.78-45.87,20.88-71.39,20.65,2.09,1.2,4.18,2.4,6.27,3.6-7.17-11.87,4.71-25.84,12.41-34.22,7.38-8.03,14.17-15.23,19.15-25.1,6.96-13.81,15.73-40.23.8-52.18-3.65-2.93-8.79,1.85-5.27,5.28Z"/>
    </clipPath>
    <clipPath id="clippath-2">
      <path class="cls-2" d="M824.93,347.42c6.76,6.57,3.72,17.95,1.05,25.74-3.3,9.66-8.45,19.81-15.16,27.58-7.81,9.03-17.17,16.2-23.31,26.69-6.34,10.84-7.8,22.13-2.2,33.54,1.11,2.26,3.85,3.58,6.27,3.59,27.9.26,55.21-7.59,78.69-22.69-2.93-.38-5.84-.75-8.75-1.14,12.59,12.36.63,31.09-10.97,38.81-14.95,9.95-32.89,15.05-48.69,23.55-16.98,9.14-32.74,20.1-47.33,32.71-12.69,10.96-25.75,23.05-34.4,37.58-7.26,12.18-12.95,28.2-8.23,42.31,5.04,15.04,20.41,22.53,35.56,20.17,18.28-2.84,32.87-15.78,46.91-26.79,17.48-13.71,34.79-27.72,52.5-41.15,13.2-10.02,30.07-21.45,47.49-17.96,17.53,3.49,26.71,18.73,16.24,34.56-9.09,13.77-24.87,23.49-38.85,31.63-14.78,8.62-30.34,15.51-46.37,21.44-31.32,11.61-63.55,20.58-94.58,33.06-16.17,6.5-32.06,13.76-46.97,22.82-13.98,8.5-29.9,18.69-34.93,35.23-4.9,16.12,2.77,32.88,15.19,43.28,13.56,11.37,30.26,14.72,47.46,11.62,19.64-3.54,37.07-14.74,53.77-25.04,17.62-10.89,35.53-21.26,53.56-31.42,18.02-10.16,36.2-20.05,54.69-29.35,17.15-8.63,34.96-18.39,53.59-23.45,11.37-3.1,27.68-5.9,37.39,2.78,14.74,13.16-2.94,34.66-12.54,44.65-53.43,55.67-131.67,72.37-205.23,81.86-21.33,2.75-42.71,5.3-63.98,8.4-18.77,2.74-37.36,6.46-54.71,14.38-30.97,14.14-57.66,48.08-47.26,83.69,9.34,32.05,43.51,50.18,75.13,51.15,40.48,1.25,79.97-18.83,116.66-33.52,36.99-14.82,73.77-30.42,108.95-49.22,17.14-9.15,33.84-19.12,49.9-30.1,15.57-10.64,30.46-24.65,48.31-31.35,17-6.37,33.01-.44,40.71,16.13,7.71,16.56,2.78,35.53-5.58,50.84-15.59,28.49-41.52,50.39-69.75,65.71-60.1,32.63-130.16,38.47-197.02,43.7-38.41,3.01-77.04,6.14-114.77,14.31-36.08,7.8-73.62,20.45-103.49,42.78-27.44,20.49-48.17,56.1-32.05,90.25,15.15,32.09,55.41,35.91,86.58,35.46,132.43-1.94,241.78-89.7,360.83-135.56,29.69-11.42,60.37-20.43,91.92-24.93,15.41-2.19,31.19-3.24,46.76-2.65,16.02.61,33.24,4.35,42.38,18.84,18.9,29.96-3.36,64.75-29.02,81.76-28.21,18.7-61.68,25.33-94.96,27.44-35.45,2.28-70.94-.34-106.4-.51-17.35-.08-34.72.37-51.97,2.26-17.45,1.92-35.77,4.42-52.1,11.16-15.02,6.2-29.29,18.39-27.45,36.2,1.78,17.24,17.79,27.03,33.38,30.35,12.44,2.64,28.28-.54,39.52,6.3,3.67,2.23,5.33,5.43,5.14,8.75,0-.17-.8,2.9-1.18,3.67-1.04,2.12-2.49,3.96-4.02,5.72-13.92,15.99-34.15,27.63-33.84,51.21.09,6.34,9.95,6.35,9.86,0-.13-9.49,10.76-17.34,18.19-22.48,9.28-6.44,19.07-13.02,25.78-22.3,7.42-10.26,8.36-23.74,1.1-34.4-8.98-13.21-25.39-16.46-40.25-18.09-6.55-.71-12.93-.99-19.2-3.31-3.34-1.22-9.19-4.01-9.59-7.04-1.47-10.9,26.36-14.81,32.79-16.22,34.66-7.59,70.59-6.84,105.86-6.24,67.9,1.15,144.89,2.49,196.66-49.31,23.75-23.78,35.54-59.33,19.49-90.74-16.87-32.96-57.11-33.84-89.39-31.74-131.92,8.59-239.41,97.28-360.67,139.69-29.51,10.31-60.16,18.12-91.41,20.51-15.25,1.15-31.03,1.62-46.22-.46-15.02-2.05-32.22-7.45-39.44-22.07-7.02-14.22-2.97-31.45,5.34-44.17,9.98-15.25,26.14-25.5,41.94-33.81,33.57-17.68,70.97-26.61,108.29-32.1,71.39-10.47,144.76-7.92,214.65-27.82,31.13-8.88,61.88-21.94,88.13-41.09,26.7-19.46,51.62-46.32,61.92-78.34,5.28-16.42,5.21-34.19-2.49-49.82-7.35-14.91-21.6-25.68-38.32-27.16-18.22-1.62-35.2,7.9-49.71,17.86-16.58,11.4-32.84,22.98-50.26,33.11-34.46,20.06-70.79,36.59-107.7,51.61-18.49,7.52-37.11,14.71-55.72,21.88-19.09,7.35-38.61,15.11-59.01,17.89-28.42,3.88-69.31-6.69-74.31-40.33-2.45-16.49,7.22-32.13,19.07-42.65,13.83-12.26,32.5-17.66,50.27-21.15,40.71-8.02,82.41-10.43,123.24-18.02,37.78-7.02,75.09-17.52,109.27-35.41,16.06-8.4,31.85-18.45,45.25-30.7,12.59-11.51,25.57-24.69,32.81-40.38,6.72-14.55,7.36-32.4-5.27-44.1-9.69-8.98-23.69-10.44-36.28-8.95-16.79,1.98-31.82,9.03-47,16.05-18.77,8.69-37.25,17.98-55.5,27.74-19.04,10.2-37.83,20.86-56.57,31.6-17.11,9.81-34.75,20.61-53.37,27.33-16.19,5.86-35.32,8.24-48.83-4.62-4.39-4.17-8.24-9.7-8.85-15.89-.81-7.94,4.8-14.09,10.5-18.81,25.59-21.15,59.53-32.9,90.47-43.63,32.13-11.14,64.67-21.8,94.83-37.75,15.06-7.98,29.33-17.41,42.19-28.62,12.07-10.52,24.47-24.74,23.67-41.81-.73-15.32-12.31-26.77-26.15-31.68-15.42-5.45-31.68-1.41-45.65,6.14-17.93,9.7-34.02,23.82-50.32,35.98-15.92,11.86-31.5,25.94-49.17,35.12-7.32,3.81-17.18,7.5-24.95,2.84-5.8-3.49-7.53-9.84-6.88-16.28,1.54-15.11,11.95-27.7,22.12-38.1,26.93-27.57,58.63-46.64,93.19-63.01,14.58-6.91,29.32-16.02,35.83-31.49,5.51-13.1,4.66-28.61-5.87-38.95-2.2-2.18-6.05-2.87-8.75-1.14-21.46,13.78-45.87,20.88-71.39,20.65,2.09,1.2,4.18,2.4,6.27,3.6-7.17-11.87,4.71-25.84,12.41-34.22,7.38-8.03,14.17-15.23,19.15-25.1,6.96-13.81,15.73-40.23.8-52.18-3.65-2.93-8.79,1.85-5.27,5.28Z"/>
    </clipPath>
  </defs>
  <g id="Layer_1-2" data-name="Layer 1">
    <g>
      <circle class="cls-5" cx="842.88" cy="810.05" r="462"/>
      <g class="cls-6">
        <g>
          <path class="cls-2" d="M824.93,347.42c6.76,6.57,3.72,17.95,1.05,25.74-3.3,9.66-8.45,19.81-15.16,27.58-7.81,9.03-17.17,16.2-23.31,26.69-6.34,10.84-7.8,22.13-2.2,33.54,1.11,2.26,3.85,3.58,6.27,3.59,27.9.26,55.21-7.59,78.69-22.69-2.93-.38-5.84-.75-8.75-1.14,12.59,12.36.63,31.09-10.97,38.81-14.95,9.95-32.89,15.05-48.69,23.55-16.98,9.14-32.74,20.1-47.33,32.71-12.69,10.96-25.75,23.05-34.4,37.58-7.26,12.18-12.95,28.2-8.23,42.31,5.04,15.04,20.41,22.53,35.56,20.17,18.28-2.84,32.87-15.78,46.91-26.79,17.48-13.71,34.79-27.72,52.5-41.15,13.2-10.02,30.07-21.45,47.49-17.96,17.53,3.49,26.71,18.73,16.24,34.56-9.09,13.77-24.87,23.49-38.85,31.63-14.78,8.62-30.34,15.51-46.37,21.44-31.32,11.61-63.55,20.58-94.58,33.06-16.17,6.5-32.06,13.76-46.97,22.82-13.98,8.5-29.9,18.69-34.93,35.23-4.9,16.12,2.77,32.88,15.19,43.28,13.56,11.37,30.26,14.72,47.46,11.62,19.64-3.54,37.07-14.74,53.77-25.04,17.62-10.89,35.53-21.26,53.56-31.42,18.02-10.16,36.2-20.05,54.69-29.35,17.15-8.63,34.96-18.39,53.59-23.45,11.37-3.1,27.68-5.9,37.39,2.78,14.74,13.16-2.94,34.66-12.54,44.65-53.43,55.67-131.67,72.37-205.23,81.86-21.33,2.75-42.71,5.3-63.98,8.4-18.77,2.74-37.36,6.46-54.71,14.38-30.97,14.14-57.66,48.08-47.26,83.69,9.34,32.05,43.51,50.18,75.13,51.15,40.48,1.25,79.97-18.83,116.66-33.52,36.99-14.82,73.77-30.42,108.95-49.22,17.14-9.15,33.84-19.12,49.9-30.1,15.57-10.64,30.46-24.65,48.31-31.35,17-6.37,33.01-.44,40.71,16.13,7.71,16.56,2.78,35.53-5.58,50.84-15.59,28.49-41.52,50.39-69.75,65.71-60.1,32.63-130.16,38.47-197.02,43.7-38.41,3.01-77.04,6.14-114.77,14.31-36.08,7.8-73.62,20.45-103.49,42.78-27.44,20.49-48.17,56.1-32.05,90.25,15.15,32.09,55.41,35.91,86.58,35.46,132.43-1.94,241.78-89.7,360.83-135.56,29.69-11.42,60.37-20.43,91.92-24.93,15.41-2.19,31.19-3.24,46.76-2.65,16.02.61,33.24,4.35,42.38,18.84,18.9,29.96-3.36,64.75-29.02,81.76-28.21,18.7-61.68,25.33-94.96,27.44-35.45,2.28-70.94-.34-106.4-.51-17.35-.08-34.72.37-51.97,2.26-17.45,1.92-35.77,4.42-52.1,11.16-15.02,6.2-29.29,18.39-27.45,36.2,1.78,17.24,17.79,27.03,33.38,30.35,12.44,2.64,28.28-.54,39.52,6.3,3.67,2.23,5.33,5.43,5.14,8.75,0-.17-.8,2.9-1.18,3.67-1.04,2.12-2.49,3.96-4.02,5.72-13.92,15.99-34.15,27.63-33.84,51.21.09,6.34,9.95,6.35,9.86,0-.13-9.49,10.76-17.34,18.19-22.48,9.28-6.44,19.07-13.02,25.78-22.3,7.42-10.26,8.36-23.74,1.1-34.4-8.98-13.21-25.39-16.46-40.25-18.09-6.55-.71-12.93-.99-19.2-3.31-3.34-1.22-9.19-4.01-9.59-7.04-1.47-10.9,26.36-14.81,32.79-16.22,34.66-7.59,70.59-6.84,105.86-6.24,67.9,1.15,144.89,2.49,196.66-49.31,23.75-23.78,35.54-59.33,19.49-90.74-16.87-32.96-57.11-33.84-89.39-31.74-131.92,8.59-239.41,97.28-360.67,139.69-29.51,10.31-60.16,18.12-91.41,20.51-15.25,1.15-31.03,1.62-46.22-.46-15.02-2.05-32.22-7.45-39.44-22.07-7.02-14.22-2.97-31.45,5.34-44.17,9.98-15.25,26.14-25.5,41.94-33.81,33.57-17.68,70.97-26.61,108.29-32.1,71.39-10.47,144.76-7.92,214.65-27.82,31.13-8.88,61.88-21.94,88.13-41.09,26.7-19.46,51.62-46.32,61.92-78.34,5.28-16.42,5.21-34.19-2.49-49.82-7.35-14.91-21.6-25.68-38.32-27.16-18.22-1.62-35.2,7.9-49.71,17.86-16.58,11.4-32.84,22.98-50.26,33.11-34.46,20.06-70.79,36.59-107.7,51.61-18.49,7.52-37.11,14.71-55.72,21.88-19.09,7.35-38.61,15.11-59.01,17.89-28.42,3.88-69.31-6.69-74.31-40.33-2.45-16.49,7.22-32.13,19.07-42.65,13.83-12.26,32.5-17.66,50.27-21.15,40.71-8.02,82.41-10.43,123.24-18.02,37.78-7.02,75.09-17.52,109.27-35.41,16.06-8.4,31.85-18.45,45.25-30.7,12.59-11.51,25.57-24.69,32.81-40.38,6.72-14.55,7.36-32.4-5.27-44.1-9.69-8.98-23.69-10.44-36.28-8.95-16.79,1.98-31.82,9.03-47,16.05-18.77,8.69-37.25,17.98-55.5,27.74-19.04,10.2-37.83,20.86-56.57,31.6-17.11,9.81-34.75,20.61-53.37,27.33-16.19,5.86-35.32,8.24-48.83-4.62-4.39-4.17-8.24-9.7-8.85-15.89-.81-7.94,4.8-14.09,10.5-18.81,25.59-21.15,59.53-32.9,90.47-43.63,32.13-11.14,64.67-21.8,94.83-37.75,15.06-7.98,29.33-17.41,42.19-28.62,12.07-10.52,24.47-24.74,23.67-41.81-.73-15.32-12.31-26.77-26.15-31.68-15.42-5.45-31.68-1.41-45.65,6.14-17.93,9.7-34.02,23.82-50.32,35.98-15.92,11.86-31.5,25.94-49.17,35.12-7.32,3.81-17.18,7.5-24.95,2.84-5.8-3.49-7.53-9.84-6.88-16.28,1.54-15.11,11.95-27.7,22.12-38.1,26.93-27.57,58.63-46.64,93.19-63.01,14.58-6.91,29.32-16.02,35.83-31.49,5.51-13.1,4.66-28.61-5.87-38.95-2.2-2.18-6.05-2.87-8.75-1.14-21.46,13.78-45.87,20.88-71.39,20.65,2.09,1.2,4.18,2.4,6.27,3.6-7.17-11.87,4.71-25.84,12.41-34.22,7.38-8.03,14.17-15.23,19.15-25.1,6.96-13.81,15.73-40.23.8-52.18-3.65-2.93-8.79,1.85-5.27,5.28Z"/>
          <g class="cls-3">
            <g>
              <path class="cls-2" d="M824.93,347.42c6.76,6.57,3.72,17.95,1.05,25.74-3.3,9.66-8.45,19.81-15.16,27.58-7.81,9.03-17.17,16.2-23.31,26.69-6.34,10.84-7.8,22.13-2.2,33.54,1.11,2.26,3.85,3.58,6.27,3.59,27.9.26,55.21-7.59,78.69-22.69-2.93-.38-5.84-.75-8.75-1.14,12.59,12.36.63,31.09-10.97,38.81-14.95,9.95-32.89,15.05-48.69,23.55-16.98,9.14-32.74,20.1-47.33,32.71-12.69,10.96-25.75,23.05-34.4,37.58-7.26,12.18-12.95,28.2-8.23,42.31,5.04,15.04,20.41,22.53,35.56,20.17,18.28-2.84,32.87-15.78,46.91-26.79,17.48-13.71,34.79-27.72,52.5-41.15,13.2-10.02,30.07-21.45,47.49-17.96,17.53,3.49,26.71,18.73,16.24,34.56-9.09,13.77-24.87,23.49-38.85,31.63-14.78,8.62-30.34,15.51-46.37,21.44-31.32,11.61-63.55,20.58-94.58,33.06-16.17,6.5-32.06,13.76-46.97,22.82-13.98,8.5-29.9,18.69-34.93,35.23-4.9,16.12,2.77,32.88,15.19,43.28,13.56,11.37,30.26,14.72,47.46,11.62,19.64-3.54,37.07-14.74,53.77-25.04,17.62-10.89,35.53-21.26,53.56-31.42,18.02-10.16,36.2-20.05,54.69-29.35,17.15-8.63,34.96-18.39,53.59-23.45,11.37-3.1,27.68-5.9,37.39,2.78,14.74,13.16-2.94,34.66-12.54,44.65-53.43,55.67-131.67,72.37-205.23,81.86-21.33,2.75-42.71,5.3-63.98,8.4-18.77,2.74-37.36,6.46-54.71,14.38-30.97,14.14-57.66,48.08-47.26,83.69,9.34,32.05,43.51,50.18,75.13,51.15,40.48,1.25,79.97-18.83,116.66-33.52,36.99-14.82,73.77-30.42,108.95-49.22,17.14-9.15,33.84-19.12,49.9-30.1,15.57-10.64,30.46-24.65,48.31-31.35,17-6.37,33.01-.44,40.71,16.13,7.71,16.56,2.78,35.53-5.58,50.84-15.59,28.49-41.52,50.39-69.75,65.71-60.1,32.63-130.16,38.47-197.02,43.7-38.41,3.01-77.04,6.14-114.77,14.31-36.08,7.8-73.62,20.45-103.49,42.78-27.44,20.49-48.17,56.1-32.05,90.25,15.15,32.09,55.41,35.91,86.58,35.46,132.43-1.94,241.78-89.7,360.83-135.56,29.69-11.42,60.37-20.43,91.92-24.93,15.41-2.19,31.19-3.24,46.76-2.65,16.02.61,33.24,4.35,42.38,18.84,18.9,29.96-3.36,64.75-29.02,81.76-28.21,18.7-61.68,25.33-94.96,27.44-35.45,2.28-70.94-.34-106.4-.51-17.35-.08-34.72.37-51.97,2.26-17.45,1.92-35.77,4.42-52.1,11.16-15.02,6.2-29.29,18.39-27.45,36.2,1.78,17.24,17.79,27.03,33.38,30.35,12.44,2.64,28.28-.54,39.52,6.3,3.67,2.23,5.33,5.43,5.14,8.75,0-.17-.8,2.9-1.18,3.67-1.04,2.12-2.49,3.96-4.02,5.72-13.92,15.99-34.15,27.63-33.84,51.21.09,6.34,9.95,6.35,9.86,0-.13-9.49,10.76-17.34,18.19-22.48,9.28-6.44,19.07-13.02,25.78-22.3,7.42-10.26,8.36-23.74,1.1-34.4-8.98-13.21-25.39-16.46-40.25-18.09-6.55-.71-12.93-.99-19.2-3.31-3.34-1.22-9.19-4.01-9.59-7.04-1.47-10.9,26.36-14.81,32.79-16.22,34.66-7.59,70.59-6.84,105.86-6.24,67.9,1.15,144.89,2.49,196.66-49.31,23.75-23.78,35.54-59.33,19.49-90.74-16.87-32.96-57.11-33.84-89.39-31.74-131.92,8.59-239.41,97.28-360.67,139.69-29.51,10.31-60.16,18.12-91.41,20.51-15.25,1.15-31.03,1.62-46.22-.46-15.02-2.05-32.22-7.45-39.44-22.07-7.02-14.22-2.97-31.45,5.34-44.17,9.98-15.25,26.14-25.5,41.94-33.81,33.57-17.68,70.97-26.61,108.29-32.1,71.39-10.47,144.76-7.92,214.65-27.82,31.13-8.88,61.88-21.94,88.13-41.09,26.7-19.46,51.62-46.32,61.92-78.34,5.28-16.42,5.21-34.19-2.49-49.82-7.35-14.91-21.6-25.68-38.32-27.16-18.22-1.62-35.2,7.9-49.71,17.86-16.58,11.4-32.84,22.98-50.26,33.11-34.46,20.06-70.79,36.59-107.7,51.61-18.49,7.52-37.11,14.71-55.72,21.88-19.09,7.35-38.61,15.11-59.01,17.89-28.42,3.88-69.31-6.69-74.31-40.33-2.45-16.49,7.22-32.13,19.07-42.65,13.83-12.26,32.5-17.66,50.27-21.15,40.71-8.02,82.41-10.43,123.24-18.02,37.78-7.02,75.09-17.52,109.27-35.41,16.06-8.4,31.85-18.45,45.25-30.7,12.59-11.51,25.57-24.69,32.81-40.38,6.72-14.55,7.36-32.4-5.27-44.1-9.69-8.98-23.69-10.44-36.28-8.95-16.79,1.98-31.82,9.03-47,16.05-18.77,8.69-37.25,17.98-55.5,27.74-19.04,10.2-37.83,20.86-56.57,31.6-17.11,9.81-34.75,20.61-53.37,27.33-16.19,5.86-35.32,8.24-48.83-4.62-4.39-4.17-8.24-9.7-8.85-15.89-.81-7.94,4.8-14.09,10.5-18.81,25.59-21.15,59.53-32.9,90.47-43.63,32.13-11.14,64.67-21.8,94.83-37.75,15.06-7.98,29.33-17.41,42.19-28.62,12.07-10.52,24.47-24.74,23.67-41.81-.73-15.32-12.31-26.77-26.15-31.68-15.42-5.45-31.68-1.41-45.65,6.14-17.93,9.7-34.02,23.82-50.32,35.98-15.92,11.86-31.5,25.94-49.17,35.12-7.32,3.81-17.18,7.5-24.95,2.84-5.8-3.49-7.53-9.84-6.88-16.28,1.54-15.11,11.95-27.7,22.12-38.1,26.93-27.57,58.63-46.64,93.19-63.01,14.58-6.91,29.32-16.02,35.83-31.49,5.51-13.1,4.66-28.61-5.87-38.95-2.2-2.18-6.05-2.87-8.75-1.14-21.46,13.78-45.87,20.88-71.39,20.65,2.09,1.2,4.18,2.4,6.27,3.6-7.17-11.87,4.71-25.84,12.41-34.22,7.38-8.03,14.17-15.23,19.15-25.1,6.96-13.81,15.73-40.23.8-52.18-3.65-2.93-8.79,1.85-5.27,5.28Z"/>
              <g class="cls-4">
                <path class="cls-2" d="M0,820.9l820.9,820.91,820.9-820.91L820.9,0,0,820.9Z"/>
              </g>
            </g>
          </g>
        </g>
      </g>
      <polygon class="cls-7" points="831.97 314.48 842.29 342.05 871.7 343.35 848.65 361.68 856.52 390.03 831.97 373.79 807.42 390.03 815.29 361.68 792.24 343.35 821.65 342.05 831.97 314.48"/>
    </g>
  </g>
</svg>