<?xml version="1.0" encoding="UTF-8"?>
<svg id="Layer_2" data-name="Layer 2" xmlns="http://www.w3.org/2000/svg" viewBox="0 0 1000 1000">
  <defs>
    <style>
      .cls-1 {
        fill: #fff;
      }

      .cls-2 {
        fill: #165b33;
      }
    </style>
  </defs>
  <g id="Layer_1-2" data-name="Layer 1">
    <rect class="cls-2" width="1000" height="1000"/>
    <path class="cls-1" d="M440.62,930.32c-54.8,0-103.42-10.99-145.87-32.97-42.45-21.98-75.57-54.49-99.35-97.55-23.78-43.05-35.68-95.89-35.68-158.52,0-37.33,4.82-74.67,14.45-112,9.63-37.33,22.73-73.16,39.29-107.48,16.56-34.32,35.08-65.94,55.55-94.84-9.03-36.13-13.55-75.27-13.55-117.42,0-31.91,3.61-62.32,10.84-91.23,2.41-8.43,6.62-12.65,12.65-12.65,4.82,0,6.92,3.01,6.32,9.03-1.81,12.04-3.31,24.84-4.52,38.39-1.2,13.55-1.81,29.66-1.81,48.32,0,34.92,3.31,68.04,9.94,99.35,6.02-7.83,12.04-15.05,18.06-21.68,24.69-27.1,53.89-52.54,87.61-76.32,33.72-23.78,71.2-42.9,112.45-57.35,41.25-14.45,85.05-21.68,131.42-21.68,43.35,0,83.1,7.98,119.23,23.94,36.13,15.96,65.18,38.84,87.16,68.64,21.98,29.81,32.97,65.78,32.97,107.93,0,26.49-7.08,53.59-21.23,81.29-14.15,27.7-34.32,53.14-60.52,76.32-26.19,23.18-57.81,42-94.84,56.45-37.03,14.45-78.43,21.68-124.19,21.68-60.21,0-115.31-13.25-165.29-39.74-49.98-26.49-88.82-66.84-116.52-121.03-24.09,42.75-41.85,86.11-53.29,130.06-11.44,43.96-17.16,85.81-17.16,125.55,0,57.81,9.63,104.77,28.9,140.9,19.27,36.13,45.91,62.77,79.93,79.93,34.02,17.16,73.01,25.74,116.97,25.74,78.28,0,147.07-19.72,206.39-59.16,59.31-39.44,108.24-100.41,146.77-182.9,7.23,0,10.84,2.71,10.84,8.13-37.33,89.12-88.37,155.2-153.1,198.26-64.73,43.05-138.34,64.58-220.84,64.58ZM334.04,338.71c-7.83,10.84-15.35,21.98-22.58,33.42,21.08,49.38,53.29,89.12,96.64,119.23,43.35,30.11,97.85,45.16,163.48,45.16,41.55,0,78.73-6.32,111.55-18.97,32.82-12.65,60.52-29.51,83.1-50.58,22.58-21.08,39.89-44.41,51.94-70,12.04-25.59,18.06-51.33,18.06-77.23,0-31.91-8.58-59.91-25.74-84-17.16-24.09-40.49-42.9-70-56.45-29.51-13.55-62.92-20.32-100.26-20.32s-74.82,7.83-112.45,23.48c-37.63,15.66-73.16,37.03-106.58,64.13-33.42,27.1-62.47,57.81-87.16,92.13Z"/>
  </g>
</svg>