<?xml version="1.0" encoding="UTF-8"?>
<svg id="Layer_2" data-name="Layer 2" xmlns="http://www.w3.org/2000/svg" xmlns:xlink="http://www.w3.org/1999/xlink" viewBox="0 0 388.7 388.7">
  <defs>
    <style>
      .cls-1, .cls-2 {
        fill: none;
      }

      .cls-3 {
        fill: #fff;
        stroke: #165B33;
        stroke-miterlimit: 10;
        stroke-width: 3px;
      }

      .cls-2 {
        stroke: #c49a47;
        stroke-width: 1.6px;
      }

      .cls-4 {
        fill: #1c5a3c;
      }

      .cls-5 {
        clip-path: url(#clippath-1);
      }

      .cls-6 {
        clip-path: url(#clippath-2);
      }

      .cls-7 {
        fill: #b0332e;
      }

      .cls-8 {
        clip-path: url(#clippath);
      }

      .cls-9 {
        fill: #c49a47;
      }
    </style>
    <clipPath id="clippath">
      <rect class="cls-1" x="122.57" y="57.85" width="143.56" height="209"/>
    </clipPath>
    <clipPath id="clippath-1">
      <path class="cls-4" d="M195.08,59.47c1.47,1.43.81,3.9.23,5.59-.72,2.1-1.84,4.3-3.29,5.99-1.7,1.96-3.73,3.52-5.06,5.8-1.38,2.36-1.69,4.81-.48,7.29.24.49.84.78,1.36.78,6.06.06,11.99-1.65,17.09-4.93-.64-.08-1.27-.16-1.9-.25,2.74,2.69.14,6.75-2.38,8.43-3.25,2.16-7.14,3.27-10.58,5.12-3.69,1.98-7.11,4.37-10.28,7.11-2.76,2.38-5.59,5.01-7.47,8.16-1.58,2.65-2.81,6.13-1.79,9.19,1.09,3.27,4.43,4.89,7.73,4.38,3.97-.62,7.14-3.43,10.19-5.82,3.8-2.98,7.56-6.02,11.4-8.94,2.87-2.18,6.53-4.66,10.32-3.9,3.81.76,5.8,4.07,3.53,7.51-1.98,2.99-5.4,5.1-8.44,6.87-3.21,1.87-6.59,3.37-10.07,4.66-6.8,2.52-13.81,4.47-20.55,7.18-3.51,1.41-6.96,2.99-10.2,4.96-3.04,1.85-6.5,4.06-7.59,7.65-1.06,3.5.6,7.14,3.3,9.4,2.94,2.47,6.57,3.2,10.31,2.53,4.27-.77,8.05-3.2,11.68-5.44,3.83-2.36,7.72-4.62,11.63-6.83,3.91-2.21,7.86-4.36,11.88-6.38,3.73-1.87,7.6-3.99,11.64-5.09,2.47-.67,6.01-1.28,8.12.6,3.2,2.86-.64,7.53-2.72,9.7-11.61,12.09-28.6,15.72-44.58,17.78-4.63.6-9.28,1.15-13.9,1.82-4.08.6-8.12,1.4-11.89,3.12-6.73,3.07-12.52,10.44-10.27,18.18,2.03,6.96,9.45,10.9,16.32,11.11,8.79.27,17.37-4.09,25.34-7.28,8.04-3.22,16.03-6.61,23.67-10.69,3.72-1.99,7.35-4.15,10.84-6.54,3.38-2.31,6.62-5.36,10.49-6.81,3.69-1.38,7.17-.1,8.84,3.5,1.67,3.6.6,7.72-1.21,11.04-3.39,6.19-9.02,10.95-15.15,14.27-13.06,7.09-28.28,8.36-42.8,9.49-8.34.65-16.73,1.33-24.93,3.11-7.84,1.69-15.99,4.44-22.48,9.29-5.96,4.45-10.47,12.19-6.96,19.61,3.29,6.97,12.04,7.8,18.81,7.7,28.77-.42,52.52-19.49,78.38-29.45,6.45-2.48,13.11-4.44,19.97-5.41,3.35-.48,6.78-.7,10.16-.58,3.48.13,7.22.94,9.21,4.09,4.11,6.51-.73,14.06-6.3,17.76-6.13,4.06-13.4,5.5-20.63,5.96-7.7.49-15.41-.07-23.11-.11-3.77-.02-7.54.08-11.29.49-3.79.42-7.77.96-11.32,2.42-3.26,1.35-6.36,3.99-5.96,7.86.39,3.74,3.87,5.87,7.25,6.59,2.7.57,6.14-.12,8.59,1.37.8.48,1.16,1.18,1.12,1.9,0-.04-.17.63-.26.8-.23.46-.54.86-.87,1.24-3.02,3.47-7.42,6-7.35,11.12.02,1.38,2.16,1.38,2.14,0-.03-2.06,2.34-3.77,3.95-4.88,2.02-1.4,4.14-2.83,5.6-4.84,1.61-2.23,1.82-5.16.24-7.47-1.95-2.87-5.51-3.58-8.74-3.93-1.42-.15-2.81-.22-4.17-.72-.72-.27-2-.87-2.08-1.53-.32-2.37,5.73-3.22,7.12-3.52,7.53-1.65,15.33-1.49,23-1.36,14.75.25,31.48.54,42.72-10.71,5.16-5.17,7.72-12.89,4.23-19.71-3.66-7.16-12.41-7.35-19.42-6.89-28.66,1.87-52.01,21.13-78.35,30.35-6.41,2.24-13.07,3.94-19.86,4.45-3.31.25-6.74.35-10.04-.1-3.26-.44-7-1.62-8.57-4.79-1.53-3.09-.65-6.83,1.16-9.59,2.17-3.31,5.68-5.54,9.11-7.35,7.29-3.84,15.42-5.78,23.52-6.97,15.51-2.27,31.45-1.72,46.63-6.04,6.76-1.93,13.44-4.77,19.14-8.93,5.8-4.23,11.21-10.06,13.45-17.02,1.15-3.57,1.13-7.43-.54-10.82-1.6-3.24-4.69-5.58-8.32-5.9-3.96-.35-7.65,1.72-10.8,3.88-3.6,2.48-7.13,4.99-10.92,7.19-7.49,4.36-15.38,7.95-23.4,11.21-4.02,1.63-8.06,3.19-12.11,4.75-4.15,1.6-8.39,3.28-12.82,3.89-6.17.84-15.06-1.45-16.14-8.76-.53-3.58,1.57-6.98,4.14-9.27,3-2.66,7.06-3.84,10.92-4.59,8.84-1.74,17.9-2.27,26.77-3.91,8.21-1.53,16.31-3.81,23.74-7.69,3.49-1.82,6.92-4.01,9.83-6.67,2.74-2.5,5.55-5.36,7.13-8.77,1.46-3.16,1.6-7.04-1.15-9.58-2.1-1.95-5.15-2.27-7.88-1.95-3.65.43-6.91,1.96-10.21,3.49-4.08,1.89-8.09,3.9-12.06,6.03-4.14,2.22-8.22,4.53-12.29,6.87-3.72,2.13-7.55,4.48-11.59,5.94-3.52,1.27-7.67,1.79-10.61-1-.95-.91-1.79-2.11-1.92-3.45-.18-1.73,1.04-3.06,2.28-4.09,5.56-4.59,12.93-7.15,19.65-9.48,6.98-2.42,14.05-4.74,20.6-8.2,3.27-1.73,6.37-3.78,9.17-6.22,2.62-2.29,5.32-5.37,5.14-9.08-.16-3.33-2.67-5.82-5.68-6.88-3.35-1.18-6.88-.31-9.92,1.33-3.9,2.11-7.39,5.17-10.93,7.82-3.46,2.58-6.84,5.63-10.68,7.63-1.59.83-3.73,1.63-5.42.62-1.26-.76-1.64-2.14-1.5-3.54.33-3.28,2.6-6.02,4.8-8.28,5.85-5.99,12.74-10.13,20.24-13.69,3.17-1.5,6.37-3.48,7.78-6.84,1.2-2.85,1.01-6.21-1.28-8.46-.48-.47-1.31-.62-1.9-.25-4.66,2.99-9.96,4.54-15.51,4.49.45.26.91.52,1.36.78-1.56-2.58,1.02-5.61,2.7-7.43,1.6-1.74,3.08-3.31,4.16-5.45,1.51-3,3.42-8.74.17-11.34-.79-.64-1.91.4-1.14,1.15Z"/>
    </clipPath>
    <clipPath id="clippath-2">
      <path class="cls-4" d="M195.08,59.47c1.47,1.43.81,3.9.23,5.59-.72,2.1-1.84,4.3-3.29,5.99-1.7,1.96-3.73,3.52-5.06,5.8-1.38,2.36-1.69,4.81-.48,7.29.24.49.84.78,1.36.78,6.06.06,11.99-1.65,17.09-4.93-.64-.08-1.27-.16-1.9-.25,2.74,2.69.14,6.75-2.38,8.43-3.25,2.16-7.14,3.27-10.58,5.12-3.69,1.98-7.11,4.37-10.28,7.11-2.76,2.38-5.59,5.01-7.47,8.16-1.58,2.65-2.81,6.13-1.79,9.19,1.09,3.27,4.43,4.89,7.73,4.38,3.97-.62,7.14-3.43,10.19-5.82,3.8-2.98,7.56-6.02,11.4-8.94,2.87-2.18,6.53-4.66,10.32-3.9,3.81.76,5.8,4.07,3.53,7.51-1.98,2.99-5.4,5.1-8.44,6.87-3.21,1.87-6.59,3.37-10.07,4.66-6.8,2.52-13.81,4.47-20.55,7.18-3.51,1.41-6.96,2.99-10.2,4.96-3.04,1.85-6.5,4.06-7.59,7.65-1.06,3.5.6,7.14,3.3,9.4,2.94,2.47,6.57,3.2,10.31,2.53,4.27-.77,8.05-3.2,11.68-5.44,3.83-2.36,7.72-4.62,11.63-6.83,3.91-2.21,7.86-4.36,11.88-6.38,3.73-1.87,7.6-3.99,11.64-5.09,2.47-.67,6.01-1.28,8.12.6,3.2,2.86-.64,7.53-2.72,9.7-11.61,12.09-28.6,15.72-44.58,17.78-4.63.6-9.28,1.15-13.9,1.82-4.08.6-8.12,1.4-11.89,3.12-6.73,3.07-12.52,10.44-10.27,18.18,2.03,6.96,9.45,10.9,16.32,11.11,8.79.27,17.37-4.09,25.34-7.28,8.04-3.22,16.03-6.61,23.67-10.69,3.72-1.99,7.35-4.15,10.84-6.54,3.38-2.31,6.62-5.36,10.49-6.81,3.69-1.38,7.17-.1,8.84,3.5,1.67,3.6.6,7.72-1.21,11.04-3.39,6.19-9.02,10.95-15.15,14.27-13.06,7.09-28.28,8.36-42.8,9.49-8.34.65-16.73,1.33-24.93,3.11-7.84,1.69-15.99,4.44-22.48,9.29-5.96,4.45-10.47,12.19-6.96,19.61,3.29,6.97,12.04,7.8,18.81,7.7,28.77-.42,52.52-19.49,78.38-29.45,6.45-2.48,13.11-4.44,19.97-5.41,3.35-.48,6.78-.7,10.16-.58,3.48.13,7.22.94,9.21,4.09,4.11,6.51-.73,14.06-6.3,17.76-6.13,4.06-13.4,5.5-20.63,5.96-7.7.49-15.41-.07-23.11-.11-3.77-.02-7.54.08-11.29.49-3.79.42-7.77.96-11.32,2.42-3.26,1.35-6.36,3.99-5.96,7.86.39,3.74,3.87,5.87,7.25,6.59,2.7.57,6.14-.12,8.59,1.37.8.48,1.16,1.18,1.12,1.9,0-.04-.17.63-.26.8-.23.46-.54.86-.87,1.24-3.02,3.47-7.42,6-7.35,11.12.02,1.38,2.16,1.38,2.14,0-.03-2.06,2.34-3.77,3.95-4.88,2.02-1.4,4.14-2.83,5.6-4.84,1.61-2.23,1.82-5.16.24-7.47-1.95-2.87-5.51-3.58-8.74-3.93-1.42-.15-2.81-.22-4.17-.72-.72-.27-2-.87-2.08-1.53-.32-2.37,5.73-3.22,7.12-3.52,7.53-1.65,15.33-1.49,23-1.36,14.75.25,31.48.54,42.72-10.71,5.16-5.17,7.72-12.89,4.23-19.71-3.66-7.16-12.41-7.35-19.42-6.89-28.66,1.87-52.01,21.13-78.35,30.35-6.41,2.24-13.07,3.94-19.86,4.45-3.31.25-6.74.35-10.04-.1-3.26-.44-7-1.62-8.57-4.79-1.53-3.09-.65-6.83,1.16-9.59,2.17-3.31,5.68-5.54,9.11-7.35,7.29-3.84,15.42-5.78,23.52-6.97,15.51-2.27,31.45-1.72,46.63-6.04,6.76-1.93,13.44-4.77,19.14-8.93,5.8-4.23,11.21-10.06,13.45-17.02,1.15-3.57,1.13-7.43-.54-10.82-1.6-3.24-4.69-5.58-8.32-5.9-3.96-.35-7.65,1.72-10.8,3.88-3.6,2.48-7.13,4.99-10.92,7.19-7.49,4.36-15.38,7.95-23.4,11.21-4.02,1.63-8.06,3.19-12.11,4.75-4.15,1.6-8.39,3.28-12.82,3.89-6.17.84-15.06-1.45-16.14-8.76-.53-3.58,1.57-6.98,4.14-9.27,3-2.66,7.06-3.84,10.92-4.59,8.84-1.74,17.9-2.27,26.77-3.91,8.21-1.53,16.31-3.81,23.74-7.69,3.49-1.82,6.92-4.01,9.83-6.67,2.74-2.5,5.55-5.36,7.13-8.77,1.46-3.16,1.6-7.04-1.15-9.58-2.1-1.95-5.15-2.27-7.88-1.95-3.65.43-6.91,1.96-10.21,3.49-4.08,1.89-8.09,3.9-12.06,6.03-4.14,2.22-8.22,4.53-12.29,6.87-3.72,2.13-7.55,4.48-11.59,5.94-3.52,1.27-7.67,1.79-10.61-1-.95-.91-1.79-2.11-1.92-3.45-.18-1.73,1.04-3.06,2.28-4.09,5.56-4.59,12.93-7.15,19.65-9.48,6.98-2.42,14.05-4.74,20.6-8.2,3.27-1.73,6.37-3.78,9.17-6.22,2.62-2.29,5.32-5.37,5.14-9.08-.16-3.33-2.67-5.82-5.68-6.88-3.35-1.18-6.88-.31-9.92,1.33-3.9,2.11-7.39,5.17-10.93,7.82-3.46,2.58-6.84,5.63-10.68,7.63-1.59.83-3.73,1.63-5.42.62-1.26-.76-1.64-2.14-1.5-3.54.33-3.28,2.6-6.02,4.8-8.28,5.85-5.99,12.74-10.13,20.24-13.69,3.17-1.5,6.37-3.48,7.78-6.84,1.2-2.85,1.01-6.21-1.28-8.46-.48-.47-1.31-.62-1.9-.25-4.66,2.99-9.96,4.54-15.51,4.49.45.26.91.52,1.36.78-1.56-2.58,1.02-5.61,2.7-7.43,1.6-1.74,3.08-3.31,4.16-5.45,1.51-3,3.42-8.74.17-11.34-.79-.64-1.91.4-1.14,1.15Z"/>
    </clipPath>
  </defs>
  <g id="Layer_1-2" data-name="Layer 1">
    <circle class="cls-3" cx="194.35" cy="194.35" r="192.85"/>
    <line class="cls-2" x1="130.71" y1="293.38" x2="257.98" y2="293.38"/>
    <g>
      <path d="M143.12,301.7h-.22c-.05-.15-.14-.32-.25-.51s-.27-.37-.45-.54-.41-.31-.68-.42-.58-.17-.94-.17c-.32,0-.61.05-.86.15s-.46.24-.63.41-.29.39-.38.63-.13.51-.13.81c0,.47.13.93.4,1.36.27.43.6.86,1,1.28s.84.84,1.3,1.26c.47.42.9.86,1.3,1.31s.74.93,1,1.43c.27.5.4,1.03.4,1.6,0,.43-.07.86-.22,1.29s-.38.82-.69,1.16c-.31.34-.71.62-1.19.83s-1.07.32-1.74.32c-.37,0-.73-.03-1.07-.1s-.65-.15-.94-.26c-.29-.1-.54-.21-.77-.33s-.41-.23-.56-.33l.23-2.18h.25c.07.31.19.6.36.88s.37.53.61.74c.24.21.51.38.82.51s.65.19,1.02.19c.34,0,.64-.05.9-.15.27-.1.5-.24.69-.42.19-.18.34-.4.44-.65s.15-.52.15-.82c0-.41-.08-.8-.23-1.15s-.35-.69-.6-1-.53-.62-.84-.92c-.31-.3-.63-.59-.96-.89s-.65-.61-.96-.92-.59-.65-.84-1.01-.45-.74-.6-1.15-.23-.86-.23-1.36c0-.52.1-.99.3-1.41s.47-.77.8-1.07c.33-.3.71-.52,1.13-.68s.86-.24,1.3-.24c.33,0,.63.03.91.08s.52.12.74.19.41.14.58.22.3.13.4.18l-.07,1.85Z"/>
      <path d="M163.97,306.83c-.26,0-.59-.01-.99-.01s-.82,0-1.29-.01-.95-.01-1.45-.01-.99,0-1.48,0-.94,0-1.37,0-.81.02-1.13.03v2.93c0,.56,0,1.05.02,1.47.02.42.04.78.06,1.08.02.3.05.56.09.76.04.2.07.37.11.51v.04h-2.37v-.04c.04-.14.08-.31.11-.51.04-.2.07-.46.09-.76.03-.3.05-.66.06-1.08.01-.42.02-.91.02-1.47v-6.42c0-.56,0-1.05-.02-1.47s-.03-.78-.06-1.09-.06-.56-.09-.76-.07-.37-.11-.51v-.04h2.37v.04c-.04.14-.08.31-.11.51s-.07.46-.09.76-.04.67-.06,1.09-.02.91-.02,1.47v2.53c.34.01.73.02,1.16.02s.89,0,1.36,0,.96,0,1.45-.01.96-.01,1.42-.02.88-.02,1.28-.03c.4-.01.74-.03,1.03-.04v-2.44c0-.56,0-1.05-.02-1.47s-.04-.78-.06-1.09-.05-.56-.09-.76-.07-.37-.11-.51v-.04h2.37v.04c-.04.14-.08.31-.11.51s-.07.46-.09.76-.05.67-.06,1.09-.02.91-.02,1.47v6.42c0,.56,0,1.05.02,1.47.01.42.03.78.06,1.08.03.3.06.56.09.76.04.2.07.37.11.51v.04h-2.37v-.04c.04-.14.08-.31.11-.51.04-.2.07-.46.09-.76.02-.3.04-.66.06-1.08.02-.42.02-.91.02-1.47v-2.91Z"/>
      <path d="M183.1,299.22c1.1,0,2.11.18,3.04.54.93.36,1.74.86,2.41,1.51s1.21,1.43,1.59,2.33.57,1.91.57,3.01c0,.62-.07,1.24-.22,1.85-.14.61-.36,1.18-.64,1.72s-.62,1.04-1.03,1.49-.87.85-1.4,1.18c-.52.33-1.1.59-1.73.78s-1.31.28-2.04.28c-1.1,0-2.11-.18-3.04-.53-.93-.35-1.74-.85-2.41-1.49-.68-.64-1.21-1.42-1.59-2.32-.38-.9-.57-1.91-.57-3.01,0-.62.07-1.24.22-1.85s.36-1.18.64-1.73c.28-.55.62-1.05,1.03-1.5s.87-.85,1.39-1.19,1.1-.6,1.74-.78,1.32-.28,2.05-.28ZM183.66,313.02c.73,0,1.4-.13,2-.39.61-.26,1.13-.64,1.56-1.14.44-.5.78-1.11,1.02-1.83s.37-1.54.37-2.45c0-1.01-.12-1.95-.35-2.82s-.58-1.61-1.04-2.25-1.03-1.13-1.72-1.49c-.69-.36-1.49-.54-2.4-.54-.73,0-1.4.13-2,.39s-1.13.64-1.56,1.13-.78,1.1-1.02,1.82c-.24.72-.37,1.53-.37,2.45,0,1.01.12,1.95.35,2.82.23.87.58,1.63,1.04,2.26.46.64,1.04,1.14,1.73,1.5s1.49.55,2.41.55Z"/>
      <path d="M202.78,307.34c.64.12,1.24.13,1.77.03.54-.1,1-.3,1.38-.61s.68-.74.9-1.27.32-1.18.32-1.95c0-.53-.06-1.02-.17-1.46s-.28-.81-.5-1.12-.5-.54-.83-.71-.73-.25-1.17-.25c-.28,0-.53.01-.74.03s-.39.05-.53.07c-.17.03-.31.07-.42.11v7.11ZM200.7,299.45c.13.01.27.03.41.04.12.01.26.02.42.02s.31,0,.48,0c.26,0,.6-.03,1.04-.09s.99-.09,1.67-.09c.63,0,1.22.09,1.75.28s1,.45,1.4.81.7.79.92,1.3.33,1.09.33,1.74c0,.87-.17,1.63-.52,2.27s-.82,1.15-1.4,1.55-1.26.66-2.02.8-1.56.15-2.4.02v1.64c0,.56,0,1.05.02,1.47.02.42.04.78.06,1.08.02.3.05.56.09.76.04.2.07.37.11.51v.04h-2.37v-.04c.04-.14.08-.31.11-.51.04-.2.07-.46.09-.76.03-.3.05-.66.06-1.08.01-.42.02-.91.02-1.47v-6.42c0-.56,0-1.05-.02-1.47s-.03-.78-.06-1.09-.06-.56-.09-.76-.07-.37-.11-.51v-.04Z"/>
    </g>
    <g>
      <path d="M225.16,313.4c.1-.12.25-.29.46-.51.21-.21.45-.47.73-.76.28-.29.57-.62.89-.98.32-.36.63-.75.95-1.17s.62-.87.91-1.35c.29-.48.55-.98.77-1.49s.4-1.06.54-1.62.2-1.13.2-1.72c0-.62-.07-1.17-.22-1.62s-.35-.84-.61-1.13-.56-.52-.9-.67-.72-.22-1.12-.22c-.5,0-.95.08-1.36.25s-.76.36-1.06.59-.54.45-.73.67-.31.39-.38.51l-.14-.06.67-2c.35-.16.68-.29.98-.41s.62-.21.93-.28.63-.13.97-.16.7-.05,1.1-.05c.27,0,.56.03.86.09s.6.15.9.29.58.3.84.51.5.46.71.76.37.65.49,1.04.18.85.18,1.35c0,.54-.08,1.08-.25,1.62s-.38,1.08-.65,1.6-.58,1.03-.93,1.53-.71.98-1.08,1.43-.73.88-1.1,1.28c-.36.4-.69.76-.98,1.09h3.8c.24,0,.48,0,.72-.01s.45-.03.65-.05.37-.05.52-.09.26-.09.34-.15h.04v2.1h-8.66v-.2Z"/>
      <path d="M251.25,299.22v.04c-.03.14-.06.31-.09.51s-.05.46-.06.76-.03.66-.04,1.08-.01.91-.01,1.47v6.08c.6-.01,1.09-.03,1.47-.06.38-.03.68-.07.9-.12h.04v1.41h-.04c-.22-.04-.52-.08-.9-.11-.38-.03-.87-.06-1.47-.07,0,.48.02.9.03,1.26s.03.68.06.94.06.49.09.68.07.34.11.47v.04h-2.37v-.04c.04-.12.08-.28.11-.47s.06-.41.08-.68.04-.58.06-.94.03-.78.03-1.26h-6.77v-.44l8.56-10.55h.21ZM249.25,309.15v-6.2l-4.99,6.2h4.99Z"/>
    </g>
    <g class="cls-8">
      <g>
        <path class="cls-4" d="M195.08,59.47c1.47,1.43.81,3.9.23,5.59-.72,2.1-1.84,4.3-3.29,5.99-1.7,1.96-3.73,3.52-5.06,5.8-1.38,2.36-1.69,4.81-.48,7.29.24.49.84.78,1.36.78,6.06.06,11.99-1.65,17.09-4.93-.64-.08-1.27-.16-1.9-.25,2.74,2.69.14,6.75-2.38,8.43-3.25,2.16-7.14,3.27-10.58,5.12-3.69,1.98-7.11,4.37-10.28,7.11-2.76,2.38-5.59,5.01-7.47,8.16-1.58,2.65-2.81,6.13-1.79,9.19,1.09,3.27,4.43,4.89,7.73,4.38,3.97-.62,7.14-3.43,10.19-5.82,3.8-2.98,7.56-6.02,11.4-8.94,2.87-2.18,6.53-4.66,10.32-3.9,3.81.76,5.8,4.07,3.53,7.51-1.98,2.99-5.4,5.1-8.44,6.87-3.21,1.87-6.59,3.37-10.07,4.66-6.8,2.52-13.81,4.47-20.55,7.18-3.51,1.41-6.96,2.99-10.2,4.96-3.04,1.85-6.5,4.06-7.59,7.65-1.06,3.5.6,7.14,3.3,9.4,2.94,2.47,6.57,3.2,10.31,2.53,4.27-.77,8.05-3.2,11.68-5.44,3.83-2.36,7.72-4.62,11.63-6.83,3.91-2.21,7.86-4.36,11.88-6.38,3.73-1.87,7.6-3.99,11.64-5.09,2.47-.67,6.01-1.28,8.12.6,3.2,2.86-.64,7.53-2.72,9.7-11.61,12.09-28.6,15.72-44.58,17.78-4.63.6-9.28,1.15-13.9,1.82-4.08.6-8.12,1.4-11.89,3.12-6.73,3.07-12.52,10.44-10.27,18.18,2.03,6.96,9.45,10.9,16.32,11.11,8.79.27,17.37-4.09,25.34-7.28,8.04-3.22,16.03-6.61,23.67-10.69,3.72-1.99,7.35-4.15,10.84-6.54,3.38-2.31,6.62-5.36,10.49-6.81,3.69-1.38,7.17-.1,8.84,3.5,1.67,3.6.6,7.72-1.21,11.04-3.39,6.19-9.02,10.95-15.15,14.27-13.06,7.09-28.28,8.36-42.8,9.49-8.34.65-16.73,1.33-24.93,3.11-7.84,1.69-15.99,4.44-22.48,9.29-5.96,4.45-10.47,12.19-6.96,19.61,3.29,6.97,12.04,7.8,18.81,7.7,28.77-.42,52.52-19.49,78.38-29.45,6.45-2.48,13.11-4.44,19.97-5.41,3.35-.48,6.78-.7,10.16-.58,3.48.13,7.22.94,9.21,4.09,4.11,6.51-.73,14.06-6.3,17.76-6.13,4.06-13.4,5.5-20.63,5.96-7.7.49-15.41-.07-23.11-.11-3.77-.02-7.54.08-11.29.49-3.79.42-7.77.96-11.32,2.42-3.26,1.35-6.36,3.99-5.96,7.86.39,3.74,3.87,5.87,7.25,6.59,2.7.57,6.14-.12,8.59,1.37.8.48,1.16,1.18,1.12,1.9,0-.04-.17.63-.26.8-.23.46-.54.86-.87,1.24-3.02,3.47-7.42,6-7.35,11.12.02,1.38,2.16,1.38,2.14,0-.03-2.06,2.34-3.77,3.95-4.88,2.02-1.4,4.14-2.83,5.6-4.84,1.61-2.23,1.82-5.16.24-7.47-1.95-2.87-5.51-3.58-8.74-3.93-1.42-.15-2.81-.22-4.17-.72-.72-.27-2-.87-2.08-1.53-.32-2.37,5.73-3.22,7.12-3.52,7.53-1.65,15.33-1.49,23-1.36,14.75.25,31.48.54,42.72-10.71,5.16-5.17,7.72-12.89,4.23-19.71-3.66-7.16-12.41-7.35-19.42-6.89-28.66,1.87-52.01,21.13-78.35,30.35-6.41,2.24-13.07,3.94-19.86,4.45-3.31.25-6.74.35-10.04-.1-3.26-.44-7-1.62-8.57-4.79-1.53-3.09-.65-6.83,1.16-9.59,2.17-3.31,5.68-5.54,9.11-7.35,7.29-3.84,15.42-5.78,23.52-6.97,15.51-2.27,31.45-1.72,46.63-6.04,6.76-1.93,13.44-4.77,19.14-8.93,5.8-4.23,11.21-10.06,13.45-17.02,1.15-3.57,1.13-7.43-.54-10.82-1.6-3.24-4.69-5.58-8.32-5.9-3.96-.35-7.65,1.72-10.8,3.88-3.6,2.48-7.13,4.99-10.92,7.19-7.49,4.36-15.38,7.95-23.4,11.21-4.02,1.63-8.06,3.19-12.11,4.75-4.15,1.6-8.39,3.28-12.82,3.89-6.17.84-15.06-1.45-16.14-8.76-.53-3.58,1.57-6.98,4.14-9.27,3-2.66,7.06-3.84,10.92-4.59,8.84-1.74,17.9-2.27,26.77-3.91,8.21-1.53,16.31-3.81,23.74-7.69,3.49-1.82,6.92-4.01,9.83-6.67,2.74-2.5,5.55-5.36,7.13-8.77,1.46-3.16,1.6-7.04-1.15-9.58-2.1-1.95-5.15-2.27-7.88-1.95-3.65.43-6.91,1.96-10.21,3.49-4.08,1.89-8.09,3.9-12.06,6.03-4.14,2.22-8.22,4.53-12.29,6.87-3.72,2.13-7.55,4.48-11.59,5.94-3.52,1.27-7.67,1.79-10.61-1-.95-.91-1.79-2.11-1.92-3.45-.18-1.73,1.04-3.06,2.28-4.09,5.56-4.59,12.93-7.15,19.65-9.48,6.98-2.42,14.05-4.74,20.6-8.2,3.27-1.73,6.37-3.78,9.17-6.22,2.62-2.29,5.32-5.37,5.14-9.08-.16-3.33-2.67-5.82-5.68-6.88-3.35-1.18-6.88-.31-9.92,1.33-3.9,2.11-7.39,5.17-10.93,7.82-3.46,2.58-6.84,5.63-10.68,7.63-1.59.83-3.73,1.63-5.42.62-1.26-.76-1.64-2.14-1.5-3.54.33-3.28,2.6-6.02,4.8-8.28,5.85-5.99,12.74-10.13,20.24-13.69,3.17-1.5,6.37-3.48,7.78-6.84,1.2-2.85,1.01-6.21-1.28-8.46-.48-.47-1.31-.62-1.9-.25-4.66,2.99-9.96,4.54-15.51,4.49.45.26.91.52,1.36.78-1.56-2.58,1.02-5.61,2.7-7.43,1.6-1.74,3.08-3.31,4.16-5.45,1.51-3,3.42-8.74.17-11.34-.79-.64-1.91.4-1.14,1.15Z"/>
        <g class="cls-5">
          <g>
            <path class="cls-4" d="M195.08,59.47c1.47,1.43.81,3.9.23,5.59-.72,2.1-1.84,4.3-3.29,5.99-1.7,1.96-3.73,3.52-5.06,5.8-1.38,2.36-1.69,4.81-.48,7.29.24.49.84.78,1.36.78,6.06.06,11.99-1.65,17.09-4.93-.64-.08-1.27-.16-1.9-.25,2.74,2.69.14,6.75-2.38,8.43-3.25,2.16-7.14,3.27-10.58,5.12-3.69,1.98-7.11,4.37-10.28,7.11-2.76,2.38-5.59,5.01-7.47,8.16-1.58,2.65-2.81,6.13-1.79,9.19,1.09,3.27,4.43,4.89,7.73,4.38,3.97-.62,7.14-3.43,10.19-5.82,3.8-2.98,7.56-6.02,11.4-8.94,2.87-2.18,6.53-4.66,10.32-3.9,3.81.76,5.8,4.07,3.53,7.51-1.98,2.99-5.4,5.1-8.44,6.87-3.21,1.87-6.59,3.37-10.07,4.66-6.8,2.52-13.81,4.47-20.55,7.18-3.51,1.41-6.96,2.99-10.2,4.96-3.04,1.85-6.5,4.06-7.59,7.65-1.06,3.5.6,7.14,3.3,9.4,2.94,2.47,6.57,3.2,10.31,2.53,4.27-.77,8.05-3.2,11.68-5.44,3.83-2.36,7.72-4.62,11.63-6.83,3.91-2.21,7.86-4.36,11.88-6.38,3.73-1.87,7.6-3.99,11.64-5.09,2.47-.67,6.01-1.28,8.12.6,3.2,2.86-.64,7.53-2.72,9.7-11.61,12.09-28.6,15.72-44.58,17.78-4.63.6-9.28,1.15-13.9,1.82-4.08.6-8.12,1.4-11.89,3.12-6.73,3.07-12.52,10.44-10.27,18.18,2.03,6.96,9.45,10.9,16.32,11.11,8.79.27,17.37-4.09,25.34-7.28,8.04-3.22,16.03-6.61,23.67-10.69,3.72-1.99,7.35-4.15,10.84-6.54,3.38-2.31,6.62-5.36,10.49-6.81,3.69-1.38,7.17-.1,8.84,3.5,1.67,3.6.6,7.72-1.21,11.04-3.39,6.19-9.02,10.95-15.15,14.27-13.06,7.09-28.28,8.36-42.8,9.49-8.34.65-16.73,1.33-24.93,3.11-7.84,1.69-15.99,4.44-22.48,9.29-5.96,4.45-10.47,12.19-6.96,19.61,3.29,6.97,12.04,7.8,18.81,7.7,28.77-.42,52.52-19.49,78.38-29.45,6.45-2.48,13.11-4.44,19.97-5.41,3.35-.48,6.78-.7,10.16-.58,3.48.13,7.22.94,9.21,4.09,4.11,6.51-.73,14.06-6.3,17.76-6.13,4.06-13.4,5.5-20.63,5.96-7.7.49-15.41-.07-23.11-.11-3.77-.02-7.54.08-11.29.49-3.79.42-7.77.96-11.32,2.42-3.26,1.35-6.36,3.99-5.96,7.86.39,3.74,3.87,5.87,7.25,6.59,2.7.57,6.14-.12,8.59,1.37.8.48,1.16,1.18,1.12,1.9,0-.04-.17.63-.26.8-.23.46-.54.86-.87,1.24-3.02,3.47-7.42,6-7.35,11.12.02,1.38,2.16,1.38,2.14,0-.03-2.06,2.34-3.77,3.95-4.88,2.02-1.4,4.14-2.83,5.6-4.84,1.61-2.23,1.82-5.16.24-7.47-1.95-2.87-5.51-3.58-8.74-3.93-1.42-.15-2.81-.22-4.17-.72-.72-.27-2-.87-2.08-1.53-.32-2.37,5.73-3.22,7.12-3.52,7.53-1.65,15.33-1.49,23-1.36,14.75.25,31.48.54,42.72-10.71,5.16-5.17,7.72-12.89,4.23-19.71-3.66-7.16-12.41-7.35-19.42-6.89-28.66,1.87-52.01,21.13-78.35,30.35-6.41,2.24-13.07,3.94-19.86,4.45-3.31.25-6.74.35-10.04-.1-3.26-.44-7-1.62-8.57-4.79-1.53-3.09-.65-6.83,1.16-9.59,2.17-3.31,5.68-5.54,9.11-7.35,7.29-3.84,15.42-5.78,23.52-6.97,15.51-2.27,31.45-1.72,46.63-6.04,6.76-1.93,13.44-4.77,19.14-8.93,5.8-4.23,11.21-10.06,13.45-17.02,1.15-3.57,1.13-7.43-.54-10.82-1.6-3.24-4.69-5.58-8.32-5.9-3.96-.35-7.65,1.72-10.8,3.88-3.6,2.48-7.13,4.99-10.92,7.19-7.49,4.36-15.38,7.95-23.4,11.21-4.02,1.63-8.06,3.19-12.11,4.75-4.15,1.6-8.39,3.28-12.82,3.89-6.17.84-15.06-1.45-16.14-8.76-.53-3.58,1.57-6.98,4.14-9.27,3-2.66,7.06-3.84,10.92-4.59,8.84-1.74,17.9-2.27,26.77-3.91,8.21-1.53,16.31-3.81,23.74-7.69,3.49-1.82,6.92-4.01,9.83-6.67,2.74-2.5,5.55-5.36,7.13-8.77,1.46-3.16,1.6-7.04-1.15-9.58-2.1-1.95-5.15-2.27-7.88-1.95-3.65.43-6.91,1.96-10.21,3.49-4.08,1.89-8.09,3.9-12.06,6.03-4.14,2.22-8.22,4.53-12.29,6.87-3.72,2.13-7.55,4.48-11.59,5.94-3.52,1.27-7.67,1.79-10.61-1-.95-.91-1.79-2.11-1.92-3.45-.18-1.73,1.04-3.06,2.28-4.09,5.56-4.59,12.93-7.15,19.65-9.48,6.98-2.42,14.05-4.74,20.6-8.2,3.27-1.73,6.37-3.78,9.17-6.22,2.62-2.29,5.32-5.37,5.14-9.08-.16-3.33-2.67-5.82-5.68-6.88-3.35-1.18-6.88-.31-9.92,1.33-3.9,2.11-7.39,5.17-10.93,7.82-3.46,2.58-6.84,5.63-10.68,7.63-1.59.83-3.73,1.63-5.42.62-1.26-.76-1.64-2.14-1.5-3.54.33-3.28,2.6-6.02,4.8-8.28,5.85-5.99,12.74-10.13,20.24-13.69,3.17-1.5,6.37-3.48,7.78-6.84,1.2-2.85,1.01-6.21-1.28-8.46-.48-.47-1.31-.62-1.9-.25-4.66,2.99-9.96,4.54-15.51,4.49.45.26.91.52,1.36.78-1.56-2.58,1.02-5.61,2.7-7.43,1.6-1.74,3.08-3.31,4.16-5.45,1.51-3,3.42-8.74.17-11.34-.79-.64-1.91.4-1.14,1.15Z"/>
            <g class="cls-6">
              <path class="cls-4" d="M15.88,162.33l178.33,178.33,178.33-178.33L194.2-16,15.88,162.33Z"/>
            </g>
          </g>
        </g>
      </g>
    </g>
    <g>
      <path class="cls-7" d="M97.17,299.2c-4.76,0-8.99-.96-12.68-2.87-3.69-1.91-6.57-4.74-8.64-8.48-2.07-3.74-3.1-8.34-3.1-13.78,0-3.25.42-6.49,1.26-9.74s1.98-6.36,3.42-9.34c1.44-2.98,3.05-5.73,4.83-8.25-.79-3.14-1.18-6.54-1.18-10.21,0-2.77.31-5.42.94-7.93.21-.73.58-1.1,1.1-1.1.42,0,.6.26.55.79-.16,1.05-.29,2.16-.39,3.34s-.16,2.58-.16,4.2c0,3.04.29,5.92.86,8.64.52-.68,1.05-1.31,1.57-1.88,2.15-2.36,4.69-4.57,7.62-6.64s6.19-3.73,9.78-4.99,7.39-1.88,11.43-1.88c3.77,0,7.22.69,10.37,2.08,3.14,1.39,5.67,3.38,7.58,5.97s2.87,5.72,2.87,9.38c0,2.3-.62,4.66-1.85,7.07s-2.98,4.62-5.26,6.64-5.03,3.65-8.25,4.91-6.82,1.88-10.8,1.88c-5.24,0-10.03-1.15-14.37-3.46s-7.72-5.81-10.13-10.52c-2.09,3.72-3.64,7.49-4.63,11.31s-1.49,7.46-1.49,10.92c0,5.03.84,9.11,2.51,12.25s3.99,5.46,6.95,6.95c2.96,1.49,6.35,2.24,10.17,2.24,6.81,0,12.79-1.71,17.94-5.14,5.16-3.43,9.41-8.73,12.76-15.9.63,0,.94.24.94.71-3.25,7.75-7.68,13.49-13.31,17.24-5.63,3.74-12.03,5.61-19.2,5.61ZM87.91,247.76c-.68.94-1.33,1.91-1.96,2.91,1.83,4.29,4.63,7.75,8.4,10.37s8.51,3.93,14.21,3.93c3.61,0,6.84-.55,9.7-1.65s5.26-2.57,7.22-4.4,3.47-3.86,4.52-6.09,1.57-4.46,1.57-6.71c0-2.77-.75-5.21-2.24-7.3s-3.52-3.73-6.09-4.91-5.47-1.77-8.72-1.77-6.5.68-9.78,2.04-6.36,3.22-9.27,5.58-5.43,5.03-7.58,8.01Z"/>
      <path class="cls-7" d="M121.12,291.42c2.2-4.5,4.49-9.23,6.87-14.17,2.38-4.95,4.83-9.93,7.34-14.96,2.51-5.03,5-9.82,7.46-14.37.89-1.57,1.71-2.8,2.47-3.69s1.77-1.33,3.02-1.33c.47,0,1.02.08,1.65.24s1.23.18,1.81.08c-.68.73-1.61,2.02-2.79,3.85s-2.49,4.03-3.93,6.6c-1.44,2.57-2.96,5.33-4.55,8.28s-3.17,5.94-4.71,8.95c-1.54,3.01-2.97,5.82-4.28,8.44,1.05-1.36,2.12-2.64,3.22-3.85s2.17-2.25,3.22-3.14c1.15-1.05,2.6-2.15,4.36-3.3s3.51-2.15,5.26-2.98,3.15-1.26,4.2-1.26c.37,0,.63.03.79.08,0,0-.29.52-.86,1.57s-1.3,2.38-2.16,4c-.86,1.62-1.75,3.38-2.67,5.26s-1.71,3.68-2.4,5.38c-.68,1.7-1.13,3.1-1.33,4.2-.16.84-.24,1.54-.24,2.12,0,.84.16,1.4.47,1.69s.65.43,1.02.43c.89,0,1.85-.46,2.87-1.37,1.02-.92,2.03-2.08,3.02-3.49s1.92-2.92,2.79-4.52c.86-1.6,1.56-3.1,2.08-4.52.63,0,.94.24.94.71-.58,1.41-1.3,2.97-2.16,4.67-.86,1.7-1.85,3.31-2.94,4.83-1.1,1.52-2.3,2.77-3.61,3.77-1.31.99-2.7,1.49-4.16,1.49-1.05,0-2.12-.37-3.22-1.1-1.1-.73-1.65-2.07-1.65-4,0-.58.05-1.19.16-1.85s.29-1.4.55-2.24c.31-1.05.84-2.21,1.57-3.49s1.68-2.89,2.83-4.83c.52-.89.79-1.6.79-2.12,0-.63-.31-.94-.94-.94-.52,0-1.23.26-2.12.79s-2.02,1.44-3.38,2.75c-1.31,1.26-2.93,3.09-4.87,5.5-1.94,2.41-4,5.78-6.2,10.13-.37.68-.77,1.03-1.22,1.06-.44.03-1.03.07-1.77.12-.47.05-.94.09-1.41.12s-.86.17-1.18.43Z"/>
      <path class="cls-7" d="M155.2,275.4c.42-.89.97-2.32,1.65-4.28s1.39-4.15,2.12-6.56,1.28-4.69,1.65-6.83c.16-.84.44-1.45.86-1.85s.86-.59,1.33-.59c.68,0,1.31.33,1.88.98s.86,1.58.86,2.79c0,1.47-.43,2.72-1.3,3.77s-1.92,2.04-3.18,2.98c.52.05,1.07.09,1.65.12s1.2.04,1.88.04c2.46,0,4.89-.16,7.3-.47.1.31.16.55.16.71,0,.68-.2,1.54-.59,2.59s-.8,1.99-1.22,2.83c-.21.47-.63,1.32-1.26,2.55s-1.31,2.62-2.04,4.16-1.35,3.06-1.85,4.55-.75,2.76-.75,3.81c0,1.36.52,2.04,1.57,2.04s2.38-1.16,4.16-3.49c1.78-2.33,3.56-5.54,5.34-9.62.63,0,.94.24.94.71-.58,1.41-1.3,2.96-2.16,4.63-.86,1.68-1.82,3.26-2.87,4.75-1.05,1.49-2.17,2.72-3.38,3.69-1.2.97-2.46,1.45-3.77,1.45-.99,0-1.99-.41-2.98-1.22-.99-.81-1.49-2.13-1.49-3.97,0-1.62.31-3.21.94-4.75.63-1.54,1.33-3,2.12-4.36s1.49-2.57,2.12-3.61.94-1.88.94-2.51c0-.94-.59-1.62-1.77-2.04s-2.71-.65-4.59-.71c-.94,2.41-1.65,4.19-2.12,5.34s-.92,2.25-1.33,3.3c-.84,0-1.13-.31-.86-.94Z"/>
      <path class="cls-7" d="M177.66,290.79c-1.94,0-3.3-.56-4.08-1.69-.79-1.13-1.18-2.42-1.18-3.89,0-.79.09-1.58.27-2.4s.41-1.56.67-2.24l5.26-13.43c.16-.42.24-.79.24-1.1,0-.52-.13-.98-.39-1.37s-.44-.67-.55-.82l4.32-.16c.79-.05,1.35.04,1.69.27s.51.51.51.82-.18.89-.55,1.73c-.52,1.26-1.23,2.83-2.12,4.71-.89,1.88-1.77,3.82-2.63,5.81s-1.6,3.85-2.2,5.58-.9,3.06-.9,4c0,.68.17,1.26.51,1.73s.93.71,1.77.71c1.1,0,2.19-.43,3.26-1.3,1.07-.86,2.08-1.98,3.02-3.34.94-1.36,1.82-2.83,2.63-4.4s1.51-3.04,2.08-4.4c.63,0,.94.24.94.71-.52,1.31-1.2,2.8-2.04,4.48-.84,1.68-1.79,3.26-2.87,4.75s-2.25,2.74-3.53,3.73c-1.28.99-2.66,1.49-4.12,1.49ZM184.65,258.83c-.68,0-1.27-.26-1.77-.79s-.75-1.15-.75-1.88c0-.89.37-1.69,1.1-2.4s1.54-1.06,2.43-1.06c.73,0,1.36.24,1.88.71s.79,1.07.79,1.81c0,.94-.37,1.78-1.1,2.51s-1.6,1.1-2.59,1.1Z"/>
      <path class="cls-7" d="M190.94,291.11c-2.15,0-3.89-.67-5.22-2s-2-2.74-2-4.2c0-1.2.3-2.32.9-3.34.6-1.02,1.4-1.53,2.4-1.53l.08-.16c1.15-2.09,2.26-4.23,3.34-6.4,1.07-2.17,2.26-4.49,3.57-6.95,1.1-2.04,2.29-3.72,3.57-5.03s2.79-1.96,4.52-1.96c.42,0,.99.09,1.73.27s1.1.56,1.1,1.14c0,.42-.24.63-.71.63-.37,0-.77-.1-1.22-.31s-.8-.31-1.06-.31c-.99,0-1.83.58-2.51,1.73s-1.02,2.38-1.02,3.69c0,1.41.24,2.68.71,3.81.47,1.13,1.02,2.21,1.65,3.26s1.18,2.11,1.65,3.18.71,2.24.71,3.49c0,2.51-.48,4.54-1.45,6.09-.97,1.54-2.24,2.71-3.81,3.49h.08c2.77,0,5.07-1.3,6.87-3.89s3.6-5.98,5.38-10.17c.63,0,.94.24.94.71-.99,2.36-2.09,4.66-3.3,6.91s-2.62,4.11-4.24,5.58c-1.62,1.47-3.61,2.2-5.97,2.2-.99,0-1.91-.1-2.75-.31-1.2.26-2.51.39-3.93.39ZM189.76,282.78c0,1.26.29,2.46.86,3.61.58,1.15,1.62,2.02,3.14,2.59,1.36-.79,2.42-2,3.18-3.65s1.14-3.36,1.14-5.14c0-1.47-.16-2.96-.47-4.48s-.64-3.01-.98-4.48c-.34-1.47-.51-2.77-.51-3.93,0-.37.01-.69.04-.98s.07-.56.12-.82c-.94,1.41-1.9,3.06-2.87,4.95s-1.9,3.69-2.79,5.42-1.7,3.14-2.43,4.24c1.05.16,1.57,1.05,1.57,2.67ZM187.17,286.71c0,.84.29,1.57.86,2.2s1.44.94,2.59.94c.52,0,1.02-.05,1.49-.16-1.1-.68-1.98-1.54-2.63-2.59-.65-1.05-.98-2.25-.98-3.61-.47.52-.81,1.06-1.02,1.61s-.31,1.09-.31,1.61Z"/>
      <path class="cls-7" d="M226.5,249.33c-.68.99-1.44,2.25-2.28,3.77s-1.61,2.98-2.32,4.4l-1.61,3.22h7.22c0,.21-.09.55-.27,1.02s-.54.81-1.06,1.02h-6.83c-.63,1.41-1.35,3.11-2.16,5.1s-1.6,4.06-2.36,6.2-1.39,4.15-1.88,6.01c-.5,1.86-.75,3.36-.75,4.52,0,1.57.21,2.74.63,3.49.42.76,1.18,1.14,2.28,1.14,1.41,0,2.77-.69,4.08-2.08,1.31-1.39,2.55-3.13,3.73-5.22,1.18-2.09,2.21-4.19,3.1-6.28.63,0,.94.24.94.71-.58,1.41-1.28,2.96-2.12,4.63-.84,1.68-1.79,3.29-2.87,4.83-1.07,1.54-2.28,2.8-3.61,3.77-1.33.97-2.81,1.45-4.44,1.45-2.2,0-3.69-.62-4.48-1.85-.79-1.23-1.18-2.81-1.18-4.75,0-1.41.26-3.13.79-5.14.52-2.02,1.16-4.1,1.92-6.24.76-2.15,1.51-4.15,2.24-6.01s1.31-3.29,1.73-4.28h-5.03c0-.42.18-.86.55-1.33.37-.47.76-.71,1.18-.71h4.16c.42-.84.9-1.88,1.45-3.14s1.3-2.64,2.24-4.16c.79-1.26,1.79-2.25,3.02-2.98,1.23-.73,2.55-1.1,3.97-1.1Z"/>
      <path class="cls-7" d="M218.42,291.19c1.94-3.72,3.77-7.45,5.5-11.19,1.73-3.74,3.48-7.29,5.26-10.64,1.05-1.88,1.92-3.21,2.63-3.97s1.66-1.14,2.87-1.14c.42,0,.86.07,1.33.2s.94.2,1.41.2c.31,0,.55-.03.71-.08-.73.42-1.68,1.45-2.83,3.1s-2.33,3.55-3.53,5.69c-1.2,2.15-2.28,4.16-3.22,6.05.99-1.2,2.03-2.41,3.1-3.61,1.07-1.2,2.26-2.36,3.57-3.46,1.15-.99,2.37-2.08,3.65-3.26s2.55-2.19,3.81-3.02,2.36-1.26,3.3-1.26c.37,0,.6.03.71.08.99.42,1.49,1.1,1.49,2.04,0,.31-.13.79-.39,1.41-.68,1.78-1.56,3.6-2.63,5.46s-2.08,3.73-3.02,5.61c.79-.94,1.77-2.09,2.94-3.46s2.37-2.57,3.57-3.61c1.15-1.05,2.62-2.15,4.4-3.3s3.53-2.15,5.26-2.98,3.11-1.26,4.16-1.26c.37,0,.63.03.79.08,0,0-.29.51-.86,1.53s-1.3,2.36-2.16,4-1.74,3.4-2.63,5.26-1.69,3.64-2.4,5.34c-.71,1.7-1.16,3.13-1.37,4.28-.16.68-.24,1.31-.24,1.88,0,.84.16,1.39.47,1.65s.65.39,1.02.39c1.05,0,2.08-.44,3.1-1.33,1.02-.89,2.03-2.03,3.02-3.42.99-1.39,1.9-2.87,2.71-4.44s1.51-3.04,2.08-4.4c.63,0,.94.24.94.71-.58,1.41-1.3,2.97-2.16,4.67-.86,1.7-1.85,3.31-2.94,4.83-1.1,1.52-2.3,2.77-3.61,3.77-1.31.99-2.72,1.49-4.24,1.49-1.1,0-2.13-.37-3.1-1.1-.97-.73-1.45-2.09-1.45-4.08,0-2.15.51-4.29,1.53-6.44,1.02-2.15,2.08-4.11,3.18-5.89.52-.89.79-1.6.79-2.12,0-.63-.31-.94-.94-.94-.52,0-1.24.26-2.16.79s-2.05,1.44-3.42,2.75c-.84.79-1.82,1.87-2.94,3.26s-2.26,2.89-3.42,4.52c-1.15,1.62-2.15,3.22-2.98,4.79s-1.39,2.96-1.65,4.16c-.79,0-1.41-.33-1.88-.98-.47-.65-.71-1.43-.71-2.32v-.47c0-.16.03-.34.08-.55.26-1.62.68-3,1.26-4.12s1.23-2.45,1.96-3.97c.37-.68.79-1.48,1.26-2.4s.89-1.81,1.26-2.67.55-1.58.55-2.16c0-.52-.21-.79-.63-.79-.47,0-1.09.24-1.85.71s-1.48,1.01-2.16,1.61-1.2,1.06-1.57,1.37c-1.31,1.26-2.89,3.06-4.75,5.42-1.86,2.36-3.89,5.71-6.09,10.05-.31.58-.68.93-1.1,1.06-.42.13-1.07.2-1.96.2-.58,0-1.06.01-1.45.04-.39.03-.8.14-1.22.35Z"/>
      <path class="cls-7" d="M283.04,291.03c-1.2,0-2.26-.34-3.18-1.02-.92-.68-1.37-2.07-1.37-4.16,0-.89.07-1.73.2-2.51s.3-1.62.51-2.51c-.47.79-1.13,1.75-1.96,2.91s-1.77,2.28-2.79,3.38-2.07,2.02-3.14,2.75c-1.07.73-2.08,1.1-3.02,1.1-1.36,0-2.46-.62-3.3-1.85-.84-1.23-1.26-2.84-1.26-4.83,0-2.15.5-4.45,1.49-6.91s2.36-4.82,4.08-7.07c1.73-2.25,3.72-4.08,5.97-5.5s4.61-2.12,7.07-2.12c1.2,0,2.36.2,3.46.59s2.07,1.03,2.91,1.92c.37.37.55.79.55,1.26,0,.31-.13.58-.39.79s-.6.26-1.02.16c-.58-1.83-1.81-2.75-3.69-2.75-.89,0-1.91.29-3.06.86-1.41.73-2.92,1.9-4.52,3.49s-3.09,3.4-4.48,5.42c-1.39,2.02-2.53,4.04-3.42,6.09s-1.33,3.9-1.33,5.58.65,2.59,1.96,2.59c1.15,0,2.34-.55,3.57-1.65s2.41-2.47,3.53-4.12,2.16-3.29,3.1-4.91,1.68-2.93,2.2-3.93c.79-1.41,1.52-2.59,2.2-3.53s1.65-1.41,2.91-1.41c.58,0,1.15.08,1.73.24s1.18.18,1.81.08c-1.57,1.57-2.94,3.43-4.12,5.58s-2.08,4.25-2.71,6.32c-.63,2.07-.94,3.81-.94,5.22,0,1.57.52,2.36,1.57,2.36.84,0,1.74-.47,2.71-1.41s1.91-2.13,2.83-3.57,1.77-2.91,2.55-4.4,1.41-2.79,1.88-3.89c.26,0,.48.03.67.08s.27.26.27.63c-.05.21-.14.43-.27.67s-.33.64-.59,1.22c-.42.84-.99,1.96-1.73,3.38s-1.6,2.84-2.59,4.28c-.99,1.44-2.07,2.66-3.22,3.65-1.15.99-2.36,1.49-3.61,1.49Z"/>
      <path class="cls-7" d="M295.76,291.11c-2.15,0-3.89-.67-5.22-2s-2-2.74-2-4.2c0-1.2.3-2.32.9-3.34.6-1.02,1.4-1.53,2.4-1.53l.08-.16c1.15-2.09,2.26-4.23,3.34-6.4,1.07-2.17,2.26-4.49,3.57-6.95,1.1-2.04,2.29-3.72,3.57-5.03s2.79-1.96,4.52-1.96c.42,0,.99.09,1.73.27s1.1.56,1.1,1.14c0,.42-.24.63-.71.63-.37,0-.77-.1-1.22-.31s-.8-.31-1.06-.31c-.99,0-1.83.58-2.51,1.73s-1.02,2.38-1.02,3.69c0,1.41.24,2.68.71,3.81.47,1.13,1.02,2.21,1.65,3.26s1.18,2.11,1.65,3.18.71,2.24.71,3.49c0,2.51-.48,4.54-1.45,6.09-.97,1.54-2.24,2.71-3.81,3.49h.08c2.77,0,5.07-1.3,6.87-3.89s3.6-5.98,5.38-10.17c.63,0,.94.24.94.71-.99,2.36-2.09,4.66-3.3,6.91s-2.62,4.11-4.24,5.58c-1.62,1.47-3.61,2.2-5.97,2.2-.99,0-1.91-.1-2.75-.31-1.2.26-2.51.39-3.93.39ZM294.59,282.78c0,1.26.29,2.46.86,3.61.58,1.15,1.62,2.02,3.14,2.59,1.36-.79,2.42-2,3.18-3.65s1.14-3.36,1.14-5.14c0-1.47-.16-2.96-.47-4.48s-.64-3.01-.98-4.48c-.34-1.47-.51-2.77-.51-3.93,0-.37.01-.69.04-.98s.07-.56.12-.82c-.94,1.41-1.9,3.06-2.87,4.95s-1.9,3.69-2.79,5.42-1.7,3.14-2.43,4.24c1.05.16,1.57,1.05,1.57,2.67ZM291.99,286.71c0,.84.29,1.57.86,2.2s1.44.94,2.59.94c.52,0,1.02-.05,1.49-.16-1.1-.68-1.98-1.54-2.63-2.59-.65-1.05-.98-2.25-.98-3.61-.47.52-.81,1.06-1.02,1.61s-.31,1.09-.31,1.61Z"/>
    </g>
    <polygon class="cls-9" points="195.13 41.74 198.02 49.44 206.23 49.81 199.79 54.93 201.99 62.85 195.13 58.31 188.28 62.85 190.47 54.93 184.04 49.81 192.25 49.44 195.13 41.74"/>
  </g>
</svg>
